<?xml version="1.0" encoding="utf-8"?>
<!-- Generator: Adobe Illustrator 28.0.0, SVG Export Plug-In . SVG Version: 6.00 Build 0)  -->
<svg version="1.1" id="Layer_1" xmlns="http://www.w3.org/2000/svg" xmlns:xlink="http://www.w3.org/1999/xlink" x="0px" y="0px"
	 viewBox="0 0 500 500" style="enable-background:new 0 0 500 500;" xml:space="preserve">
<style type="text/css">
	.st0{fill:#15386E;}
</style>
<g>
	<g>
		<path class="st0" d="M250,68.4C100,68.4,3,244.8,3,244.8s70.6,176.4,247,176.4c176.4,0,247-176.4,247-176.4S426.4,68.4,250,68.4z
			 M250,375.8c-72.3,0-131-58.6-131-131s58.7-131,131-131c72.4,0,131,58.7,131,131S322.4,375.8,250,375.8z"/>
	</g>
	<path class="st0" d="M316.2,244.8c0,36.5-29.7,66.2-66.2,66.2c-36.6,0-66.2-29.7-66.2-66.2c0-36.6,29.7-66.2,66.2-66.2
		C286.6,178.6,316.2,208.2,316.2,244.8z"/>
</g>
</svg>
