<?xml version="1.0" encoding="utf-8"?>
<!-- Generator: Adobe Illustrator 28.0.0, SVG Export Plug-In . SVG Version: 6.00 Build 0)  -->
<svg version="1.1" id="_015_HEALTH" xmlns="http://www.w3.org/2000/svg" xmlns:xlink="http://www.w3.org/1999/xlink" x="0px"
	 y="0px" viewBox="0 0 24 24" style="enable-background:new 0 0 24 24;" xml:space="preserve">
<style type="text/css">
	.st0{fill:#15386E;}
</style>
<g>
	<path class="st0" d="M20.2,7.8l-2.6,2.6c0.2,0.6,0.3,1.2,0.3,1.9c0,3.3-2.7,6-6,6c-0.7,0-1.3-0.1-1.9-0.3l-1.8,1.8
		c1.1,0.4,2.3,0.6,3.6,0.6c8,0,11.2-8,11.2-8S22.3,9.9,20.2,7.8z"/>
	<path class="st0" d="M14.9,12.5l-2.7,2.7C13.7,15,14.8,13.9,14.9,12.5z"/>
	<path class="st0" d="M21.5,2.5c-0.6-0.6-1.4-0.6-2,0l-2.7,2.7c-1.3-0.6-2.9-1.1-4.8-1.1c-6.8,0-11.2,8-11.2,8s1.2,2.9,3.8,5.2l-2,2
		c-0.6,0.6-0.6,1.4,0,2c0.3,0.3,0.6,0.4,1,0.4c0.4,0,0.7-0.1,1-0.4L21.5,4.5C22,3.9,22,3.1,21.5,2.5z M6,12.2c0-3.3,2.7-6,6-6
		c1.1,0,2.1,0.3,2.9,0.8l-2.2,2.2c-0.2-0.1-0.5-0.1-0.7-0.1c-1.7,0-3,1.3-3,3c0,0.2,0.1,0.5,0.1,0.7l-2.2,2.2
		C6.3,14.3,6,13.3,6,12.2z"/>
</g>
</svg>
