<?xml version="1.0" encoding="utf-8"?>
<!-- Generator: Adobe Illustrator 28.0.0, SVG Export Plug-In . SVG Version: 6.00 Build 0)  -->
<svg version="1.1" id="圖層_1" xmlns="http://www.w3.org/2000/svg" xmlns:xlink="http://www.w3.org/1999/xlink" x="0px" y="0px"
	 viewBox="0 0 18.7 23.4" style="enable-background:new 0 0 18.7 23.4;" xml:space="preserve">
<style type="text/css">
	.st0{fill:#103465;}
</style>
<path class="st0" d="M16.5,9.4V7.2c0-4-3.2-7.2-7.2-7.2c-4,0-7.2,3.2-7.2,7.2v2.2C1,9.5,0,10.5,0,11.7v9.4c0,1.3,1,2.3,2.3,2.3h14.1
	c1.3,0,2.3-1,2.3-2.3v-9.4C18.7,10.5,17.8,9.5,16.5,9.4z M10.4,17.1v2.6c0,0.6-0.4,1-1,1c-0.6,0-1-0.4-1-1v-2.6c-0.6-0.3-1-1-1-1.7
	c0-1.1,0.9-2,2-2c1.1,0,2,0.9,2,2C11.4,16.1,11,16.7,10.4,17.1z M14,9.4H4.7V7.2c0-2.6,2.1-4.7,4.7-4.7c2.6,0,4.7,2.1,4.7,4.7V9.4z"
	/>
</svg>
