<?xml version="1.0" encoding="utf-8"?>
<!-- Generator: Adobe Illustrator 28.0.0, SVG Export Plug-In . SVG Version: 6.00 Build 0)  -->
<svg version="1.1" id="圖層_1" xmlns="http://www.w3.org/2000/svg" xmlns:xlink="http://www.w3.org/1999/xlink" x="0px" y="0px"
	 viewBox="0 0 18.1 16.7" style="enable-background:new 0 0 18.1 16.7;" xml:space="preserve">
<style type="text/css">
	.st0{fill:#13376A;}
</style>
<g>
	<path class="st0" d="M13.9,2.7H6.2l0.6-1.6c0.1-0.3,0-0.7-0.2-1c-0.3-0.2-0.7-0.2-1,0L0.4,3.8C0.1,3.9,0,4.2,0,4.5
		C0,4.8,0.2,5,0.4,5.2l5.5,3.3c0.3,0.2,0.7,0.2,1-0.1c0.3-0.2,0.3-0.6,0.2-1L6.3,5.9h7.6c0.6,0,1,0.5,1,1v5.6c0,0.6-0.5,1-1,1H5.5
		c-0.7,0-1.4,0.6-1.4,1.4v0.5c0,0.7,0.6,1.4,1.4,1.4h8.4c2.3,0,4.2-1.9,4.2-4.2V6.9C18.1,4.6,16.2,2.7,13.9,2.7z"/>
</g>
</svg>
