<?xml version="1.0" encoding="utf-8"?>
<!-- Generator: Adobe Illustrator 28.0.0, SVG Export Plug-In . SVG Version: 6.00 Build 0)  -->
<svg version="1.1" id="圖層_1" xmlns="http://www.w3.org/2000/svg" xmlns:xlink="http://www.w3.org/1999/xlink" x="0px" y="0px"
	 viewBox="0 0 25.3 25.3" style="enable-background:new 0 0 25.3 25.3;" xml:space="preserve">
<style type="text/css">
	.st0{fill:#333333;}
</style>
<path class="st0" d="M25,23.6l-6.7-6.7c1.5-1.8,2.4-4.1,2.4-6.6C20.6,4.6,16,0,10.3,0S0,4.6,0,10.3s4.6,10.3,10.3,10.3
	c2.5,0,4.8-0.9,6.5-2.3l6.7,6.7c0.2,0.2,0.5,0.3,0.7,0.3c0.3,0,0.5-0.1,0.7-0.3C25.4,24.6,25.4,24,25,23.6z M2,10.3
	C2,5.7,5.7,2,10.3,2c4.6,0,8.3,3.7,8.3,8.3s-3.7,8.3-8.3,8.3C5.7,18.6,2,14.9,2,10.3z"/>
</svg>
