<?xml version="1.0" encoding="utf-8"?>
<!-- Generator: Adobe Illustrator 26.1.0, SVG Export Plug-In . SVG Version: 6.00 Build 0)  -->
<svg version="1.1" id="圖層_1" xmlns="http://www.w3.org/2000/svg" xmlns:xlink="http://www.w3.org/1999/xlink" x="0px" y="0px"
	 viewBox="0 0 82 82" style="enable-background:new 0 0 82 82;" xml:space="preserve">
	<style type="text/css"> .st1{fill:#7895AC;} </style>
	<g class="st0">
		<path class="st1" d="M41,82c-14.3,0-24.5-3.2-31.1-9.9C3.2,65.5,0,55.3,0,41S3.2,16.5,9.9,9.9S26.7,0,41,0s24.5,3.2,31.1,9.9
			C78.8,16.5,82,26.7,82,41s-3.2,24.5-9.9,31.1S55.3,82,41,82z M41,2c-13.7,0-23.4,3-29.7,9.3S2,27.3,2,41s3,23.4,9.3,29.7
			C17.6,77,27.3,80,41,80s23.4-3,29.7-9.3S80,54.7,80,41s-3-23.4-9.3-29.7C64.4,5,54.7,2,41,2z"/>
	</g>
</svg>
