<?xml version="1.0" encoding="utf-8"?>
<!-- Generator: Adobe Illustrator 28.0.0, SVG Export Plug-In . SVG Version: 6.00 Build 0)  -->
<svg version="1.1" id="圖層_1" xmlns="http://www.w3.org/2000/svg" xmlns:xlink="http://www.w3.org/1999/xlink" x="0px" y="0px"
	 viewBox="0 0 50 50" style="enable-background:new 0 0 50 50;" xml:space="preserve">
<style type="text/css">
	.st0{clip-path:url(#SVGID_00000160890713089532844530000017108435877368294026_);fill:#FFFFFF;}
	.st1{clip-path:url(#SVGID_00000160890713089532844530000017108435877368294026_);}
	.st2{fill:#B4DEF7;}
	.st3{fill:#78ABDC;}
	.st4{fill:#F39800;}
	.st5{fill:#0068B7;}
	.st6{fill:#00A83B;}
	.st7{fill:#E60012;}
	.st8{fill:#4B3491;}
	.st9{fill:#EB70A7;}
	.st10{fill:#FFF100;}
	.st11{fill:#F08000;}
	.st12{fill:#3B2400;}
	.st13{fill:#1F1E1D;}
	.st14{fill:#514F4E;}
	.st15{fill:url(#SVGID_00000155109202612585983610000010136712757989634442_);}
	.st16{fill:#7B5524;}
	.st17{fill:url(#SVGID_00000052788583952344854720000009984984367005115288_);}
	.st18{fill:url(#SVGID_00000121239766811119352380000015935683630322238651_);}
	.st19{fill:#FEF5F0;}
	.st20{fill:url(#SVGID_00000066517857320900921950000005631003857807155099_);}
	.st21{fill:#828282;}
	.st22{fill:#4C4948;}
	.st23{fill:url(#SVGID_00000102515795289667822030000013884209343981672625_);}
	.st24{fill:#EA5504;}
	.st25{fill:url(#SVGID_00000008829855272438868360000001669041369998131642_);}
	.st26{fill:url(#SVGID_00000054959008931019321160000010154801266234145409_);}
	.st27{fill:url(#SVGID_00000021811783394217936820000000038096167627939732_);}
	.st28{fill:#FFFFFF;}
	.st29{fill:url(#SVGID_00000021806843534291481910000004376217144070629557_);}
	.st30{fill:url(#SVGID_00000109717356783238767900000007010718144010708368_);}
	.st31{fill:url(#SVGID_00000054226309008358060180000003980826403837047437_);}
	.st32{fill:url(#SVGID_00000027583717202639433970000011820936968696647602_);}
	.st33{fill:url(#SVGID_00000010990082605111713630000013531957094973645732_);}
	.st34{fill:url(#SVGID_00000116919916964550459050000008394513956862095530_);}
	.st35{fill:url(#SVGID_00000049218507529365239470000000305304823233911484_);}
	.st36{fill:url(#SVGID_00000074434050752783207770000018195938456780502425_);}
	.st37{fill:url(#SVGID_00000018919941180800689510000016450280562366667440_);}
	.st38{fill:#EAE8D9;}
	.st39{fill:#003E4F;}
	.st40{fill:#001F2D;}
	.st41{fill:#959C96;}
	.st42{fill:#7E2602;}
	.st43{fill:#C03D1F;}
	.st44{fill:#FAD3B3;}
	.st45{fill:url(#SVGID_00000090287969822789655080000002825678574686684056_);}
	.st46{fill:url(#SVGID_00000154423390229309738550000005629405039586579364_);}
	.st47{fill:#EC6D5F;}
	.st48{fill:#F5AD81;}
	.st49{fill:url(#SVGID_00000015313092779595609470000010142975143540492688_);}
	.st50{fill:url(#SVGID_00000051370945053758597080000006344862109491200386_);}
	.st51{fill:url(#SVGID_00000127752847038279186610000015472335186789409198_);}
	
		.st52{clip-path:url(#SVGID_00000045584041943842099020000007133242199849383084_);fill:url(#SVGID_00000111174808931728264870000002884256117443837863_);}
	
		.st53{clip-path:url(#SVGID_00000045584041943842099020000007133242199849383084_);fill:url(#SVGID_00000078005772463760286160000009192173164138046096_);}
	
		.st54{clip-path:url(#SVGID_00000009554981467082881970000002987265392726429339_);fill:url(#SVGID_00000132773300162416313360000007375404519228526208_);}
	.st55{fill:#003263;}
	.st56{opacity:0.3;fill:#EC6D5F;}
	.st57{opacity:0.5;fill:#EC6D5F;}
	.st58{opacity:0.35;fill:#FEF6F9;}
	.st59{opacity:0.66;fill:#FEF6F9;}
	.st60{opacity:0.75;fill:#FFFFFF;}
	.st61{fill:url(#SVGID_00000092451261933583824430000002007450073476915641_);}
	.st62{fill:url(#SVGID_00000156586127666110117480000007669371111925351356_);}
	.st63{fill:url(#SVGID_00000085966087240997796580000009003778319617359027_);}
	.st64{fill:url(#SVGID_00000003077848151437804500000016310080310362846129_);}
	.st65{fill:url(#SVGID_00000183966907059976826620000009126456353197379211_);}
	.st66{fill:url(#SVGID_00000031202755378970882370000000957753625831401364_);}
	.st67{fill:url(#SVGID_00000067915265969941310450000004690502323496502969_);}
	.st68{fill:url(#SVGID_00000029741574695495031340000003283376987883645627_);}
	.st69{fill:url(#SVGID_00000054978470463893228220000013032740421520818866_);}
	.st70{fill:url(#SVGID_00000012452316070298360860000017798863192854893987_);}
	.st71{opacity:0.7;fill:#1D2088;}
</style>
<g>
	<defs>
		<circle id="SVGID_1_" cx="24.9" cy="25.1" r="24.2"/>
	</defs>
	<clipPath id="SVGID_00000116225025109956412840000005700062140741228712_">
		<use xlink:href="#SVGID_1_"  style="overflow:visible;"/>
	</clipPath>
	
		<ellipse style="clip-path:url(#SVGID_00000116225025109956412840000005700062140741228712_);fill:#FFFFFF;" cx="27.5" cy="27.7" rx="34.3" ry="31.9"/>
	<g style="clip-path:url(#SVGID_00000116225025109956412840000005700062140741228712_);">
		<path class="st2" d="M35.6,42.8c0.1-1.1,0.3-2.5,0.4-3.8c0,0-0.1,0-0.1,0c-1.9,0-2.9,0.2-3.5,0.5C33,41,34.2,42,35.6,42.8z"/>
		<path class="st3" d="M32.4,39.4c-0.5,0.2-0.6,0.4-0.7,0.4l0.8,4.3l2.8,0.4c0-0.3,0.1-0.9,0.2-1.7C34.2,42,33,41,32.4,39.4z"/>
		<path class="st4" d="M38.6,32.6C38.6,32.6,38.6,32.6,38.6,32.6C38.6,32.6,38.6,32.6,38.6,32.6L38.6,32.6z"/>
		<path class="st4" d="M30.7,39.2c-0.4,0.2-0.8,0.3-1.2,0.5c-0.2,0-0.3,0.2-0.3,0.2l-0.1,0.1c0,0.1,0,0.2,0,0.4l1,5.1
			c0.1,0.5,0.5,0.8,1.1,0.8c0.1,0,0.2,0,0.2,0c0.2,0,0.5-0.2,0.6-0.3c0,0,0.2-0.1,0.2-0.3c0,0,0,0,0,0c0.1-0.2,0.1-0.4,0.1-0.6
			l-1-5.1C31.3,39.5,31.1,39.3,30.7,39.2z"/>
		<polygon class="st5" points="27.5,49 24.3,49.1 24.3,49.8 27.5,49.8 		"/>
		<polygon class="st6" points="24.3,50.8 27.5,50.9 27.5,50.2 24.3,50.2 		"/>
		<polygon class="st7" points="24.3,54.5 24.3,55.1 27.1,55.1 27.3,54.3 		"/>
		<path class="st2" d="M25.7,43.2l2.1-2.3c-1,0.3-2,0.4-3,0.4L25.7,43.2z"/>
		<path class="st3" d="M24.3,40.5l0.4,0.8c1,0,2-0.2,3-0.4l0.9-1C27.3,40.3,25.8,40.5,24.3,40.5z"/>
		<path class="st3" d="M28.9,40.9l-0.1-0.6c0,0,0,0,0,0l-3,3.2l-1.6-2.7l0.1,1.1c0.4,0.8,1.2,1.3,1.4,2.1
			C27.1,43.5,28,42.3,28.9,40.9z"/>
		<path class="st3" d="M27.9,45.7H25l3.2,0.8c0-0.7,0-1.4-0.3-1.9V45.7z"/>
		<path class="st3" d="M32.5,47.2c-0.1-0.3-0.3-0.6-0.4-1c-0.2,0.2-0.3,0.2-0.6,0.2c-0.1,0-0.2,0-0.3,0c-0.2,0-0.5-0.1-0.7-0.1
			C30.9,47.2,31.7,47.3,32.5,47.2z"/>
		<path class="st2" d="M34.5,52c-0.6-1.4-1.3-3-2.1-4.7c-0.8,0-1.6,0-2-0.8c-0.4-0.2-0.7-0.5-0.8-0.9l-0.9-4.5
			c-0.9,1.4-1.8,2.6-3.3,3.3c-0.2-0.8-1-1.4-1.4-2.1l0.1,2.3h3.6v0.2c0.3,0.5,0.3,1.2,0.3,1.9l0.4,0.1l0.3,1.6l-0.1,0
			c0.1,0.2,0,0.4,0.2,0.7c-1.4-0.7-3.2-0.7-4.6-1.2v1.2h3.6V49c0.5,0,0.4,0.7,0.7,0.7c-0.7,2.2-0.5,4.5-0.2,6.6
			C27,56.1,25.7,56,24.3,56v2l1.5,1.7l9.1-3.5C35,54.8,34.9,53.3,34.5,52z"/>
		<path class="st3" d="M34.5,52c0.3,1.4,0.5,2.9,0.4,4.3l0.8-0.3C35.9,55.5,35.4,54,34.5,52z"/>
		<path class="st3" d="M28.6,49.7c-0.4,0-0.2-0.7-0.7-0.7v0.8v0.4v0.7l0.1,0l0,1.3l-2.9,0.4h2.4v1.3h-3.1v0.2h3.1v1.3h-3.1V56
			c1.4,0,2.7,0,4.1,0.4C28.1,54.2,27.9,51.9,28.6,49.7z"/>
		<path class="st3" d="M28.8,48.2l-4.5-0.8v0.3c1.4,0.5,3.2,0.5,4.6,1.2C28.9,48.6,28.9,48.4,28.8,48.2z"/>
		<polygon class="st8" points="27.5,44.7 24.3,44.7 24.3,45.5 27.5,45.3 		"/>
		<polygon class="st9" points="24.3,45.7 24.3,47 28.5,47.7 28.3,46.8 		"/>
		<polygon class="st10" points="24.3,52.4 27.6,51.9 27.6,51.2 24.3,51.8 		"/>
		<polygon class="st3" points="24.3,51.5 26.3,51.2 24.3,51.2 		"/>
		<polygon class="st11" points="24.3,53 24.3,53.6 27.1,53.8 27.1,53 		"/>
		<path class="st4" d="M31.6,71.1c-0.2,0.2-0.5,0.3-0.7,0.5c0.2,0,0.4-0.1,0.6-0.1C31.6,71.3,31.6,71.2,31.6,71.1z"/>
		<path class="st4" d="M15.3,45C15.3,45,15.3,45,15.3,45c0,0,0,0.1,0,0.1c0,0.1,0,0.3,0.1,0.5c0,0,0,0,0,0c0,0,0,0,0,0
			c0.2,0.3,0.5,0.5,0.8,0.6c0.1,0,0.2,0,0.2,0c0.5,0,1-0.3,1.1-0.8l1-5.1c0-0.2,0-0.3,0-0.5c0,0,0,0,0,0c-0.1-0.3-0.2-0.3-0.2-0.3
			c0,0,0,0,0,0c-0.3-0.1-0.7-0.3-1-0.4c-0.5,0-0.9,0.3-1,0.8L15.3,45C15.3,45,15.3,45,15.3,45z"/>
		<path class="st12" d="M32.1,14L32,13.9c-0.2-0.5-0.6-1-1-1.2c0,0.2,0,0.4-0.1,0.5c0,0.1-0.1,0.3-0.1,0.3c0.2,0.3,1.9,0.9,2.3,0.9
			c0.1,0,0.2-0.1,0.3-0.4c0-0.1,0.1-0.2,0.2-0.3c0,0,0,0,0,0c-0.2,0-0.5,0.1-1.1,0.2L32.1,14z"/>
		<path class="st4" d="M9.5,32.6C9.5,32.6,9.5,32.6,9.5,32.6L9.5,32.6C9.5,32.6,9.5,32.6,9.5,32.6z"/>
		<path class="st2" d="M15.9,40.2l0.1-0.4C15.8,39.7,15,39,11.8,39c0,0-0.1,0-0.1,0c0.1,1,0.2,2.1,0.3,3.1
			C13.5,41.8,14.9,41.3,15.9,40.2z"/>
		<path class="st3" d="M12,42.1c0.1,1.2,0.3,2.1,0.3,2.5l2.8-0.4l0.7-3.9C14.9,41.3,13.5,41.8,12,42.1z"/>
		<path class="st13" d="M11,55.5c-0.3-0.5-0.6-1.1-0.9-1.8c-0.2,0.2-0.6,0.4-0.9,0.5c0.1,0.2,0.3,0.4,0.4,0.6c0.5,0.3,1,0.6,1.4,0.9
			C11,55.7,11,55.7,11,55.5z"/>
		<path class="st14" d="M11.3,56.1L11.3,56.1c-0.1-0.1-0.1-0.2-0.2-0.3c-0.5-0.4-0.9-0.7-1.4-0.9c1.1,1.7,2.1,2.7,2.4,3.1
			C12,57.7,11.7,57,11.3,56.1L11.3,56.1z"/>
		
			<linearGradient id="SVGID_00000124134400203474600060000009027173199581727411_" gradientUnits="userSpaceOnUse" x1="-0.8715" y1="39.6558" x2="2.4382" y2="37.4994">
			<stop  offset="0" style="stop-color:#FAC000"/>
			<stop  offset="0.135" style="stop-color:#FAC100"/>
			<stop  offset="0.207" style="stop-color:#FBC300"/>
			<stop  offset="0.2641" style="stop-color:#FBC608"/>
			<stop  offset="0.3134" style="stop-color:#FCCB33"/>
			<stop  offset="0.3576" style="stop-color:#FDD252"/>
			<stop  offset="0.3982" style="stop-color:#FDDA74"/>
			<stop  offset="0.4362" style="stop-color:#FEE498"/>
			<stop  offset="0.4709" style="stop-color:#FFEFBF"/>
			<stop  offset="0.4892" style="stop-color:#FFF6D6"/>
			<stop  offset="0.5342" style="stop-color:#FFEBAF"/>
			<stop  offset="0.5867" style="stop-color:#FEDF86"/>
			<stop  offset="0.6422" style="stop-color:#FDD561"/>
			<stop  offset="0.7001" style="stop-color:#FCCE3F"/>
			<stop  offset="0.7612" style="stop-color:#FBC819"/>
			<stop  offset="0.8271" style="stop-color:#FBC300"/>
			<stop  offset="0.901" style="stop-color:#FAC100"/>
			<stop  offset="1" style="stop-color:#FAC000"/>
		</linearGradient>
		<path style="fill:url(#SVGID_00000124134400203474600060000009027173199581727411_);" d="M3,40.1c0.1-0.4,0.2-0.8,0-1.2
			c-0.1-0.1-0.2-0.3-0.4-0.5c-0.5-0.5-2-1.7-3-2.4l1.6,2.6c0,0,0.3,0,0.3,0c0.6,0.1,0.8,0.3,0.9,0.8c0.1,0.5-0.4,1-1,1
			c-0.5,0-0.9-0.4-0.9-1c0-0.2,0.1-0.4,0.2-0.5l-1.4-2.6c0.1,1.5,0.5,3.6,0.7,4.1c0,0.1,0.1,0.2,0.1,0.2c0.3,0.5,0.9,0.7,1.4,0.7
			c0.3,0,0.5-0.1,0.8-0.2C2.6,40.8,2.8,40.5,3,40.1z"/>
		<path class="st13" d="M5.7,47.8c0.2-0.2,0.4-0.3,0.7-0.4c0-0.1,0.1-0.4,0.1-0.5c-0.9-1.6-1.8-3.1-2.6-4.1c0.6,1.4,1.1,2.9,1.5,4.4
			C5.5,47.4,5.6,47.6,5.7,47.8z"/>
		<path class="st14" d="M3.9,42.8c-0.6-0.9-1.1-1.4-1.4-1.4c0,0,0,0,0,0c-0.1,0-0.1,0.5,0.7,2.2c0.5,1,1.3,2.2,2.2,3.6
			C5,45.8,4.5,44.3,3.9,42.8z"/>
		<path class="st16" d="M9.5,27.2c0-0.2,0-0.4,0.1-0.7c-0.2-0.1-0.3-0.2-0.5-0.3C9.2,26.6,9.3,26.9,9.5,27.2z"/>
		<path class="st16" d="M13.4,17.2c-0.1,0-0.5,0.2-0.6,0.2C11,19.9,9.6,23,9.4,26c0.1,0.1,0.1,0.1,0.2,0.1
			C9.7,25.2,10.3,21.1,13.4,17.2z"/>
		
			<linearGradient id="SVGID_00000033355999360375647090000005692040782975487416_" gradientUnits="userSpaceOnUse" x1="31.2642" y1="27.645" x2="31.2642" y2="22.7328">
			<stop  offset="0" style="stop-color:#008AD4"/>
			<stop  offset="0.1061" style="stop-color:#0086CF"/>
			<stop  offset="0.2733" style="stop-color:#007BC0"/>
			<stop  offset="0.4807" style="stop-color:#0068A7"/>
			<stop  offset="0.7202" style="stop-color:#004C83"/>
			<stop  offset="0.9731" style="stop-color:#002754"/>
		</linearGradient>
		<path style="fill:url(#SVGID_00000033355999360375647090000005692040782975487416_);" d="M31.3,22.9c-1.3,0-2.3,1.1-2.3,2.4
			c0,1.3,1.1,2,2.4,2c1.1,0,2-0.5,2.2-1.5c0-0.1,0-0.3,0-0.5C33.6,24,32.6,22.9,31.3,22.9z"/>
		
			<linearGradient id="SVGID_00000088099603818329295550000004314327438805804433_" gradientUnits="userSpaceOnUse" x1="16.7319" y1="27.645" x2="16.7319" y2="22.7329">
			<stop  offset="0" style="stop-color:#008AD4"/>
			<stop  offset="0.1061" style="stop-color:#0086CF"/>
			<stop  offset="0.2733" style="stop-color:#007BC0"/>
			<stop  offset="0.4807" style="stop-color:#0068A7"/>
			<stop  offset="0.7202" style="stop-color:#004C83"/>
			<stop  offset="0.9731" style="stop-color:#002754"/>
		</linearGradient>
		<path style="fill:url(#SVGID_00000088099603818329295550000004314327438805804433_);" d="M16.7,22.9c-1.3,0-2.3,1.2-2.3,2.5
			c0,1.3,1.1,2,2.4,2c1.1,0,2-0.5,2.2-1.5c0-0.1,0-0.3,0-0.5C19.1,24,18,22.9,16.7,22.9z"/>
		<path class="st16" d="M30.2,13.6c0.2,0.3,2.6,1.5,3.4,1.5c0.3-0.4,0.5-0.8,0.5-0.8l0.1-0.2l0,0l0.2,0.1c0,0,0.1,0.1,0.1,0.1
			C37,17.9,38.6,22,38.8,26c0,0,0,0,0,0c0,0,0.1,0,0.1,0c0,0,0.1,0,0.2-0.1c0-0.8,0.2-4.3-1.5-7.4c-1.5-2.8-2.6-4.2-3.1-4.6
			c0,0-0.1-0.1-0.2-0.1c-0.1,0-0.2,0-0.2,0c0,0-0.1,0.1-0.1,0.2c-0.1,0.1-0.1,0.2-0.1,0.3c0,0.1-0.1,0.1-0.1,0.2
			c-0.1,0.1-0.2,0.2-0.4,0.2c-0.3,0-1.2-0.1-1.6-0.3c-1.2-0.5-1.2-0.8-1.2-0.9c0-0.1,0-0.2,0.1-0.3c0.1-0.4,0.1-0.6,0-0.7
			c-0.1-0.1-0.2-0.1-0.2-0.1l0,0c-0.9-0.4-2.7-1.2-5.1-1.2c-0.6,0-1.2,0-1.8,0.1c-3.9,0.5-6.9,2-9.3,4.5c-0.3,0.3-0.9,1-1.2,1.4
			c0.1,0,0.6-0.2,0.7-0.3c0.8-0.9,1.7-1.8,2.8-2.6c2.4-1.8,5.2-2.8,8.2-2.8c3.2,0,5.4,1,5.5,1.1l0.1,0.1l0,0.1
			C30.4,12.6,30.2,13.2,30.2,13.6z"/>
		<polygon class="st8" points="18.7,55.3 23.6,54.8 23.6,54.1 18.7,54.5 		"/>
		<path class="st3" d="M22.7,44.4c0-0.9,0.6-1.4,1-2l0.1-1.5l-1.5,2.7l-3.3-3.4c0,0.1,0,0.1,0,0.2l0,0
			C20.2,41.7,20.9,43.5,22.7,44.4z"/>
		<path class="st2" d="M23.6,44.8l0.1-2.5c-0.4,0.6-1,1.1-1,2c-1.3-0.7-2.1-1.8-2.9-2.9c0,0.9-0.2,2-0.7,2.9L23.6,44.8z"/>
		<path class="st3" d="M23.6,46.3H19c0.3,0.1,0.5,0.4,0.8,0.6l3.8-0.3V46.3z"/>
		<path class="st3" d="M20.2,48.4l0.4,0.1l0.1-0.5L19.7,48C19.9,48.1,20.1,48.2,20.2,48.4z"/>
		<path class="st3" d="M23.6,55.5V55l-4.8,0.7C20.1,56.6,21.9,55.6,23.6,55.5z"/>
		<path class="st19" d="M15.4,46c-0.2,0.4-0.5,0.9-0.7,1.3c-2.7,5.4-3.3,7.3-3.3,8.1c0,0,0,0,0,0c1.1-3.1,2.4-6.4,4.4-9.1
			C15.6,46.3,15.5,46.2,15.4,46z"/>
		<path class="st2" d="M18.7,55.6l-0.4,0.1l0.1-1.5l1.6-0.2h-0.1v-1v-0.4v-0.7v-0.3v-0.8l-0.4,0l-0.1-2.4l0.7,0.1
			c-0.1-0.2-0.2-0.3-0.4-0.4l-0.3,0l0.1-1.2l0.2,0c-0.3-0.2-0.5-0.4-0.8-0.6h-0.4l-0.1-0.8c-0.3,0.3-0.6,0.6-1,0.8
			c-0.3,0.2-0.6,0.4-1,0.4c-0.1,0-0.2,0-0.3,0c-0.2,0-0.3-0.1-0.5-0.2c-1.9,2.7-3.2,6-4.4,9.1c0,0,0,0,0,0c0.1,0.1,0.1,0.2,0.2,0.4
			l6.9,2.6c1.8,0.3,3.5,0.1,5.1-1.3v-1.6C21.9,55.6,20.1,56.6,18.7,55.6z"/>
		<path class="st3" d="M18.5,58.5l3.6,1.4l1.5-1.8v-0.9C22,58.6,20.2,58.8,18.5,58.5z"/>
		<path class="st3" d="M19.1,44.4c0.4-0.9,0.7-2,0.7-2.9c-0.3-0.4-0.6-0.7-0.9-1.1l-1,5c-0.1,0.3-0.2,0.5-0.4,0.7
			c0.4-0.2,0.7-0.4,1-0.8l-0.1-1.1L19.1,44.4z"/>
		<polygon class="st7" points="18.8,45.9 23.6,45.9 23.6,45 18.8,44.7 		"/>
		<polygon class="st11" points="19.7,47.6 20.7,47.6 20.7,47.6 20.8,47.6 23.6,47.3 23.6,46.7 19.8,47.2 		"/>
		<polygon class="st10" points="21,48.5 23.6,48.9 23.6,48.1 21,47.9 		"/>
		<polygon class="st6" points="20.6,48.8 19.8,48.7 19.8,50.3 23.6,50.4 23.6,49.1 20.6,48.8 		"/>
		<polygon class="st3" points="23.6,47.8 23.6,47.7 22.7,47.8 		"/>
		<path class="st4" d="M32.9,70.2c-0.3,0.2-0.5,0.3-0.8,0.5c-0.1,0.1-0.2,0.3-0.3,0.6c0.2,0,0.5-0.1,0.7-0.1
			C32.6,71,32.8,70.6,32.9,70.2z"/>
		<path class="st4" d="M16.6,71.6c-0.2-0.1-0.4-0.3-0.7-0.5c0,0.1,0.1,0.2,0.1,0.3C16.2,71.5,16.4,71.5,16.6,71.6z"/>
		<path class="st3" d="M19,39.7l0.5,0.5c1.2,0.5,2.5,0.9,3.7,1l0.4-0.8C22,40.4,20.5,40.2,19,39.7z"/>
		<path class="st2" d="M22.1,43l1.1-1.8c-1.2-0.1-2.5-0.5-3.7-1L22.1,43z"/>
		
			<linearGradient id="SVGID_00000116225583900453520890000015964799464483654035_" gradientUnits="userSpaceOnUse" x1="40.141" y1="74.5022" x2="36.6556" y2="68.7362">
			<stop  offset="0" style="stop-color:#9D9D9E"/>
			<stop  offset="1" style="stop-color:#FFFFFF"/>
		</linearGradient>
		<path style="fill:url(#SVGID_00000116225583900453520890000015964799464483654035_);" d="M35.4,73.1c2,1.2,4.3,1.4,6.5,1.4
			l0.1-0.3c0-0.1,0-0.1,0-0.2c0-0.2,0.1-0.4,0.1-0.7l0-0.3l0,0c0-0.2,0-0.5,0-0.7c0-1.7-1.1-3.3-2.8-4c0,0-0.1,0-0.1,0
			c-0.1,0-0.3-0.1-0.4-0.1C38.5,68,38,68,37.5,68c-0.9,0-1.7,0.4-2.6,1c-0.2,0.3-0.3,0.6-0.4,0.8C34.4,71.1,34.3,72.4,35.4,73.1z"/>
		<path class="st21" d="M35.4,73.1c-1.2-0.7-1-2.1-0.9-3.3c-0.7,1.4-0.9,2.3,0.7,5.7c3.6,0.1,5.7-0.4,6.7-0.5l0.1-0.5
			C39.7,74.5,37.5,74.3,35.4,73.1z"/>
		<path class="st22" d="M35.5,75.8c-2.1,0-4.6-0.1-7.3-0.5l-0.3,0l0,0.7c0.1,0,0.4,0.1,1.5,0.1c0.4,0,0.8,0,1.1,0c0.2,0,0.3,0,0.4,0
			l10.4,0.3c0.5,0,0.9-0.2,0.9-0.4l0-0.7l-0.3,0C41.3,75.4,38.9,75.8,35.5,75.8z"/>
		<path class="st4" d="M34.1,69.5c-0.1,0.1-0.2,0.1-0.3,0.2c-0.1,0-0.2,0.1-0.2,0.1C33.5,70,33,70.7,33,71.3c0.3,0,0.5,0,0.6,0
			C33.7,70.5,33.9,69.9,34.1,69.5z"/>
		
			<linearGradient id="SVGID_00000089567734042588295720000013800419398151589783_" gradientUnits="userSpaceOnUse" x1="10.1698" y1="74.6369" x2="7.8508" y2="69.0358">
			<stop  offset="0" style="stop-color:#9D9D9E"/>
			<stop  offset="1" style="stop-color:#FFFFFF"/>
		</linearGradient>
		<path style="fill:url(#SVGID_00000089567734042588295720000013800419398151589783_);" d="M12.5,68.9C11.6,68.4,10.9,68,10,68
			c-0.1,0-0.2,0-0.3,0c-0.4,0-0.7,0-1.1,0.1c-0.1,0-0.3,0.1-0.4,0.1l0,0c0,0-0.1,0-0.1,0C6.4,69,5.3,70,5.3,71.7c0,0.2,0,1,0,1.2
			l0,0l0,0.3c0,0.2,0.1,0.5,0.1,0.7c0,0.1,0,0.1,0,0.2L5.6,75c0.4,0.1,1,0.2,1.8,0.2c0.8-0.1,1.7-0.3,2.5-0.6
			C11.8,73.3,13.7,71.2,12.5,68.9z"/>
		<path class="st21" d="M12.6,69c0,0-0.1-0.1-0.1-0.1c1.2,2.2-0.6,4.4-2.5,5.6c-0.8,0.4-1.7,0.6-2.5,0.6c1.2,0.1,2.8,0.2,4.9,0.2
			C14.1,71.4,13.8,71,12.6,69z"/>
		<path class="st22" d="M12,75.8c-3.4,0-5.7-0.3-6.6-0.5l-0.3,0l0,0.7c0,0.2,0.4,0.4,0.9,0.4L16.5,76c0.1,0,0.2,0,0.4,0
			c0.3,0,0.7,0,1.1,0c1.1,0,1.4-0.1,1.5-0.1l0-0.7l-0.3,0C16.6,75.6,14.1,75.8,12,75.8z"/>
		<polygon class="st5" points="20.3,51.5 23.6,51.5 23.6,50.6 20.3,50.8 		"/>
		<path class="st4" d="M15.6,71.4c-0.1-0.3-0.2-0.6-0.3-0.6c-0.2-0.2-0.5-0.3-0.8-0.5c0.2,0.3,0.3,0.7,0.3,1.1
			C15.1,71.3,15.4,71.4,15.6,71.4z"/>
		<path class="st24" d="M13.2,75.4c1.8,0,3.8-0.2,6.1-0.5l0-0.1l0,0c0,0-0.5-0.9-1.6-2.2L17.1,72c-0.8-0.5-2.5-0.4-3.1-0.4
			C14.1,72.5,13.9,73.9,13.2,75.4z"/>
		<path class="st4" d="M14.6,71.3c-0.1-0.6-0.5-1.3-0.6-1.4c-0.1,0-0.2-0.1-0.2-0.1c-0.1-0.1-0.2-0.1-0.3-0.2c0.2,0.4,0.5,1,0.6,1.8
			C14.1,71.3,14.3,71.3,14.6,71.3z"/>
		<polygon class="st8" points="20.3,53.8 23.6,53.6 23.6,53 20.3,53 		"/>
		<polygon class="st9" points="20.3,52.6 23.6,52.7 23.6,51.9 20.3,51.9 		"/>
		<path class="st24" d="M30.3,72.2c-1.1,1.2-2,2.6-2,2.6l0,0l0,0.1c2.2,0.3,4.3,0.6,6.2,0.7c-0.7-1.5-0.9-3-0.9-4
			C32.9,71.6,31.2,71.7,30.3,72.2L30.3,72.2z"/>
		
			<linearGradient id="SVGID_00000072259525611604122810000017846032002755204789_" gradientUnits="userSpaceOnUse" x1="43.4849" y1="20.6793" x2="38.1343" y2="16.6027">
			<stop  offset="0" style="stop-color:#FFFEF3"/>
			<stop  offset="1" style="stop-color:#93897C"/>
		</linearGradient>
		<path style="fill:url(#SVGID_00000072259525611604122810000017846032002755204789_);" d="M42,22.1c0.6-2,0.6-3.1,0.6-3.1l0-0.3
			c-0.2-0.3-1.6-3-2.3-4c0.1,2.8,0.5,5.6,1.5,8.2C41.8,22.7,41.9,22.4,42,22.1z"/>
		
			<linearGradient id="SVGID_00000141420568672209117620000006093210507685136785_" gradientUnits="userSpaceOnUse" x1="43.5143" y1="22.1428" x2="30.9351" y2="12.5586">
			<stop  offset="0" style="stop-color:#FFFEF3"/>
			<stop  offset="1" style="stop-color:#93897C"/>
		</linearGradient>
		<path style="fill:url(#SVGID_00000141420568672209117620000006093210507685136785_);" d="M43,17.2l0.3-0.2
			c-0.3-0.7-1.8-3.6-5.3-5.8c-1.2-0.8-2.3-1-3.2-0.7c-1.3,0.5-1.4,1.1-1.8,2.1l0,0c-0.1,0.4-0.5,0.9-0.6,1.1
			c1.2-0.3,2.1-0.1,2.1-0.1c0.9,0.7,2.2,2.8,3.2,4.7c1.6,3,1.7,6.4,1.7,7.5c0.5-0.2,1-0.2,1.5-0.2c0,0,0,0,0,0
			c0.1-0.3,0.5-1.2,0.9-2.6c-0.9-2.6-1.3-5.4-1.5-8.2c0,0-0.1-0.1-0.1-0.1l0.1,0c0.7,0.7,2.1,3.2,2.5,3.8l0.2-0.1l-0.2-0.7
			c-0.2-0.3-1.9-3.5-3.3-4.7l0.1-0.1C40.9,14,42.6,16.6,43,17.2z"/>
		
			<linearGradient id="SVGID_00000099656588984153930630000003189597227059815821_" gradientUnits="userSpaceOnUse" x1="50.4327" y1="15.2989" x2="35.8867" y2="9.7714">
			<stop  offset="0" style="stop-color:#FFFEF3"/>
			<stop  offset="1" style="stop-color:#B3A899"/>
		</linearGradient>
		<path style="fill:url(#SVGID_00000099656588984153930630000003189597227059815821_);" d="M37.9,9c-0.8,0.1-1.6,0.2-2.3,0.5
			c-0.9,0.3-1.6,0.7-2,1.2c0.1-0.1,0.4-0.2,0.6-0.3c0.2-0.1,0.4-0.2,0.5-0.2c1-0.4,2.2-0.1,3.5,0.7c1.8,1.1,2.9,2.2,3.7,3.3
			c1.3-0.8,2.8-1.2,4.3-1.4c-0.3-0.2-0.7-0.5-0.9-0.7C42.7,10.3,40.2,8.8,37.9,9z"/>
		<path class="st28" d="M42,14.4c0.2-0.2,1-0.6,2-0.9c0.7-0.2,1.6-0.4,2.4-0.5c-0.1-0.1-0.2-0.1-0.3-0.2c-1.5,0.2-3,0.7-4.3,1.4
			C41.9,14.2,42,14.3,42,14.4z"/>
		<path class="st28" d="M8.5,2.7L9,3l3.1,1.5l0,0c0.1,0,0.2-0.1,0.3-0.1c-1.3-0.5-2.5-1.1-3.7-1.8C8.6,2.6,8.5,2.7,8.5,2.7z"/>
		
			<linearGradient id="SVGID_00000061471600095661909250000011308832589914532757_" gradientUnits="userSpaceOnUse" x1="9.1109" y1="0.7522" x2="20.4205" y2="3.3713">
			<stop  offset="0" style="stop-color:#FFFEF3"/>
			<stop  offset="1" style="stop-color:#B3A899"/>
		</linearGradient>
		<path style="fill:url(#SVGID_00000061471600095661909250000011308832589914532757_);" d="M30.6,5.3c-1.2-1.5-2.8-2.9-4.9-3.9
			c-1.5-0.8-3.4-1.3-5.5-1.5C13.2-0.9,9.7,1.6,8.7,2.5c1.2,0.7,2.4,1.3,3.7,1.8c0.2-0.1,0.3-0.2,0.5-0.2c1.8-0.8,3.6-1.2,5.9-1.2
			c0.1,0,0.3,0,0.4,0C24,3.1,28,5,30.5,7.1c1,0.8,1.7,1.6,2.2,2.4c0.1,0.2,0.2,0.3,0.3,0.5C32.7,8.7,32,7,30.6,5.3z"/>
		<path class="st28" d="M4.6,10.5L4.6,10.5l4.8,1c0.2-0.2,0.4-0.5,0.7-0.7C8.5,10.4,6.9,10,5.2,9.8C5,10.1,4.7,10.3,4.6,10.5z"/>
		
			<linearGradient id="SVGID_00000182501065898594271170000011783738883803563927_" gradientUnits="userSpaceOnUse" x1="7.6456" y1="10.7079" x2="14.5823" y2="9.05">
			<stop  offset="0" style="stop-color:#FFFEF3"/>
			<stop  offset="1" style="stop-color:#93897C"/>
		</linearGradient>
		<path style="fill:url(#SVGID_00000182501065898594271170000011783738883803563927_);" d="M28.9,6.3c-2.7-1.9-6-3.1-9.6-3.2
			C12.5,2.9,7.2,7.7,5.2,9.8c1.7,0.2,3.2,0.6,4.9,0.9C12.5,8.2,15.9,5.5,20,5c5.3-0.7,9.6,1.7,11.9,4.2c0.3,0.3,0.5,0.6,0.7,0.8
			C31.9,8.8,30.6,7.4,28.9,6.3z"/>
		<path class="st28" d="M11.7-2.7c0,0-0.1,0-0.1,0c-0.1,0-0.1,0.1-0.2,0.1L13.7,0c0.2,0,0.3-0.1,0.5-0.1C13.5-1.1,12.7-1.9,11.7-2.7
			z"/>
		
			<linearGradient id="SVGID_00000152987089892591771480000009879648702054447294_" gradientUnits="userSpaceOnUse" x1="12.5282" y1="-2.7358" x2="31.8251" y2="4.3674">
			<stop  offset="0" style="stop-color:#FFFEF3"/>
			<stop  offset="1" style="stop-color:#A09688"/>
		</linearGradient>
		<path style="fill:url(#SVGID_00000152987089892591771480000009879648702054447294_);" d="M27.9-0.8c-0.4-0.4-1-0.7-1.5-1.1
			C23.1-3.7,18-5.1,11.7-2.7c0.9,0.8,1.7,1.7,2.4,2.6c1.7-0.3,3.8-0.5,6.5-0.2c5.5,0.5,8.5,3.2,10.2,5.3C32,6.4,32.7,8,33,9.3
			C32.8,6.3,31.6,2.2,27.9-0.8z"/>
		
			<linearGradient id="SVGID_00000123413197892576576850000007188973117681999515_" gradientUnits="userSpaceOnUse" x1="53.3022" y1="9.9443" x2="35.308" y2="8.0592">
			<stop  offset="0" style="stop-color:#FFFEF3"/>
			<stop  offset="1" style="stop-color:#A09688"/>
		</linearGradient>
		<path style="fill:url(#SVGID_00000123413197892576576850000007188973117681999515_);" d="M36.5,7.7c-1.2,0.8-2.1,1.5-2.6,2.2
			c0.2-0.1,0.3-0.3,0.5-0.4c0.8-0.5,1.9-0.8,3.1-0.9c0.1,0,0.2,0,0.3,0c1-0.1,2.1,0.2,3.2,0.7c0.8-0.7,1.6-1.5,2.6-2
			C41.4,6.6,39.1,6,36.5,7.7z"/>
		<path class="st28" d="M43.7,7.3c-1,0.5-1.8,1.3-2.6,2c0.1,0.1,0.2,0.1,0.4,0.2c0.2-0.2,0.6-0.6,1.2-1c0.4-0.3,0.9-0.7,1.5-1
			c0,0,0,0,0,0C43.9,7.4,43.8,7.3,43.7,7.3z"/>
		
			<linearGradient id="SVGID_00000182486285562618257180000010074237432123156872_" gradientUnits="userSpaceOnUse" x1="5.7658" y1="15.8748" x2="11.3797" y2="14.5197">
			<stop  offset="0" style="stop-color:#FFFEF3"/>
			<stop  offset="1" style="stop-color:#93897C"/>
		</linearGradient>
		<path style="fill:url(#SVGID_00000182486285562618257180000010074237432123156872_);" d="M6.7,16.5L6.7,16.5l-0.4,0.6L6.5,18
			l0.1,0.3c0,0,0-0.1,0.1-0.1c0-0.1,0.1-0.1,0.1-0.2c0,0,0.1-0.1,0.1-0.1c0.4-2.2,1.9-3.8,3.1-5.6C8.1,14,6.9,16.1,6.7,16.5z"/>
		
			<linearGradient id="SVGID_00000020381050530405481950000006219998849273484193_" gradientUnits="userSpaceOnUse" x1="7.8241" y1="23.6995" x2="8.9925" y2="23.4175">
			<stop  offset="0" style="stop-color:#FFFEF3"/>
			<stop  offset="1" style="stop-color:#93897C"/>
		</linearGradient>
		<path style="fill:url(#SVGID_00000020381050530405481950000006219998849273484193_);" d="M8.4,25c-0.1-0.4-0.1-0.7-0.1-1.1
			c0-0.6,0.1-1.1,0.2-1.7c-0.2,0.5-0.4,0.9-0.7,1.4C8,24,8.2,24.5,8.4,25z"/>
		
			<linearGradient id="SVGID_00000113348315268930031500000014567376803198730649_" gradientUnits="userSpaceOnUse" x1="4.2871" y1="16.6999" x2="38.1609" y2="8.5234">
			<stop  offset="0" style="stop-color:#FFFEF3"/>
			<stop  offset="1" style="stop-color:#93897C"/>
		</linearGradient>
		<path style="fill:url(#SVGID_00000113348315268930031500000014567376803198730649_);" d="M31.6,9.5c-1.5-1.7-4.1-3.3-7.1-4
			c-1.4-0.3-3-0.4-4.7-0.2C12.2,6.3,6.9,15,6.4,15.8l0,0.4c0.5-0.8,2-2.6,3.5-4l0,0.1c-0.1,0.1-0.1,0.1-0.2,0.2
			c-1.1,1.8-2.7,3.4-3.1,5.6c0.5-0.8,1.6-2.2,2.4-3.4c0,0,0,0,0,0l0.1,0.1c-1.2,1.8-2.5,3.9-2.6,4.1L6,19.7l0.2,0.2l0.3,0.3
			c0.2-0.6,0.8-2.1,2.3-4.4c1.8-2.8,5.8-5.8,7.9-6.5c0,0,0,0,0.1,0c0.1-0.1,0.2-0.1,0.3-0.2c-0.1,0.1-0.2,0.1-0.3,0.2
			c0,0,0.1,0,0.1,0l0,0c0,0-0.1,0-0.1,0c-4.8,2.8-7.7,7.9-9.5,13c0.1,0.4,0.3,0.8,0.5,1.3c0.2-0.5,0.4-0.9,0.7-1.4
			c0.3-1.3,1-2.5,1.9-3.5c2-3.1,4.5-5.9,7.4-8.3c0.9-0.7,2.3-1.1,3.6-0.9c-1.8,0.8-3.2,2-4.4,3.6c1.8-1.1,4-1.8,6.4-2.2
			c0.6-0.1,1.2-0.1,1.8-0.1c2.5,0,4.4,0.7,5.4,1.1c0.1,0,0.1,0.1,0.2,0.1c0.4,0.2,1,1,1.4,1.7c0.3-0.5,0.5-1.4,0.7-2.1
			C32.9,11.3,32.5,10.4,31.6,9.5z"/>
		
			<linearGradient id="SVGID_00000142135641143028401090000011767134229551447998_" gradientUnits="userSpaceOnUse" x1="9.2142" y1="15.5263" x2="24.731" y2="11.7809">
			<stop  offset="0" style="stop-color:#FFFEF3"/>
			<stop  offset="1" style="stop-color:#93897C"/>
		</linearGradient>
		<path style="fill:url(#SVGID_00000142135641143028401090000011767134229551447998_);" d="M21.4,9.5c-1.3-0.2-2.7,0.2-3.6,0.9
			c-3,2.4-5.4,5.2-7.4,8.3c0.7-0.7,1.5-1.2,2.3-1.6c0.4-0.6,0.9-1.1,1.3-1.5c0.9-1,1.9-1.8,3-2.5C18.2,11.5,19.7,10.3,21.4,9.5z"/>
		
			<linearGradient id="SVGID_00000000941301643967909310000003069401505567897519_" gradientUnits="userSpaceOnUse" x1="5.5985" y1="17.349" x2="20.5579" y2="13.7381">
			<stop  offset="0" style="stop-color:#FFFEF3"/>
			<stop  offset="1" style="stop-color:#93897C"/>
		</linearGradient>
		<path style="fill:url(#SVGID_00000000941301643967909310000003069401505567897519_);" d="M16.8,9.3C16.8,9.3,16.8,9.3,16.8,9.3
			c-2,0.7-5.8,3.6-7.7,6.6c-1.7,2.6-2.3,4.4-2.3,4.7c0,0.2,0.2,0.8,0.5,1.7C9.2,17.2,12.1,12.1,16.8,9.3z"/>
		<path class="st38" d="M8.6,23.8c0,0.7,0.1,1.3,0.3,2c0,0,0.1,0,0.1,0.1c0.2-2.8,1.6-5.8,3.2-8.2C10.1,18.9,8.6,21.2,8.6,23.8z"/>
		<path class="st39" d="M27.6,60.4c0,2,0,5.4-0.1,8c-0.1,1.7-0.1,3-0.1,3.4c0,0.6,0.4,1,0.7,1.4C29.8,69.4,29.8,64,27.6,60.4z"/>
		<path class="st40" d="M29.4,58.6l-1.9,0.7c0,0.3,0,0.7,0,1.1c2.2,3.6,2.2,9,0.4,12.8c0.2,0.2,0.3,0.4,0.4,0.5
			c0.4-0.6,1-1.2,1.6-1.9l0,0c0.1-0.1,0.3-0.2,0.5-0.3c0.1-0.1,0.2-0.1,0.2-0.2C30.2,69.2,29.6,60.3,29.4,58.6z"/>
		<path class="st41" d="M17.8,61.7c-0.3,3.3-0.7,8.1-1,9.5c0.1,0.1,0.2,0.1,0.2,0.2c0.1,0,0.1,0.1,0.2,0.1
			C17.9,68.3,18.1,65,17.8,61.7z"/>
		<path class="st39" d="M19.1,60.4c-0.2-0.4-0.5-1-1-1.3c0,0.6-0.1,1.6-0.2,2.6c0.3,3.3,0.1,6.6-0.6,9.9c0.1,0.1,0.2,0.1,0.3,0.2
			l0,0c0.1,0.1,0.2,0.2,0.3,0.4C19.5,68.5,20.1,64.2,19.1,60.4z"/>
		<path class="st40" d="M20.2,71.8c0-0.4-0.1-1.8-0.1-3.4c-0.1-3.2-0.3-7.5-0.3-9.2l-1.7-0.6c0,0.1,0,0.3,0,0.5
			c0.5,0.3,0.8,0.8,1,1.3c1,3.8,0.4,8.1-1.3,11.8c0.5,0.6,1,1.2,1.3,1.7C19.4,73.4,20.2,72.7,20.2,71.8z"/>
		<path class="st42" d="M38.3,46.5l0.3,0.9c0.4-0.2,0.9-0.3,1.3-0.3H40c0.1,0,0.2,0,0.2,0V47c0-0.3,0.1-0.7,0.3-0.9
			C39.4,45.7,38.5,46.3,38.3,46.5z"/>
		<path class="st43" d="M41.6,45.7c-0.2,0-0.4,0.1-0.6,0.2c0,0,0,0,0,0c-0.1,0.1-0.2,0.2-0.3,0.3c0,0,0,0,0,0c0,0,0,0.1,0,0.1
			c-0.1,0.2-0.2,0.5-0.2,0.7v0.2c0.3,0.1,0.5,0.1,0.8,0.2l0.1,0c0.1-0.4,0.7-0.8,1-1.4C42.2,45.8,41.9,45.7,41.6,45.7z"/>
		<path class="st42" d="M42.3,46c-0.3,0.6-0.8,1.1-1,1.4l0.3,0.2c0.3,0.2,0.6,0.5,0.8,0.8c0.1-0.2,0.1-0.4,0.1-0.6V47
			C42.7,46.6,42.6,46.3,42.3,46z"/>
		<path class="st42" d="M42.5,49.2C42.5,49.2,42.5,49.2,42.5,49.2C42.5,49.1,42.5,49.1,42.5,49.2c-0.1-0.2-0.1-0.3-0.2-0.4
			c0,0,0,0,0,0c0,0,0,0,0,0c-0.3-0.5-0.6-0.8-1-1c-0.2,2.4,0.7,5.5-1.5,6.8c0,0,0,0,0.1,0H40c1.5,0,2.7-1.1,2.7-2.4v-2.2
			C42.7,49.7,42.6,49.4,42.5,49.2z"/>
		<path class="st43" d="M41.3,47.8c-0.4-0.2-0.9-0.3-1.1-0.3v0c-0.1,0-0.2,0-0.2,0h-0.1c-1.3,0-2.3,0.8-2.6,1.9h2.4v0.4h-2.5
			c0,0.1,0,0.1,0,0.2v1h2.5v0.4h-2.5v0.8c0,0.2,0,0.3,0,0.5h2.5V53h-2.3c0.4,0.9,1.3,1.6,2.5,1.6C42.1,53.3,41.1,50.2,41.3,47.8z"/>
		<path class="st44" d="M38.5,45.9c0.4-0.2,1.1-0.5,1.8-0.3c-1.3-2.6-3.7-3.6-4.3-3.8c-0.1,0.5-0.1,0.9-0.2,1.3
			C36.3,43.3,37.7,43.8,38.5,45.9z"/>
		
			<linearGradient id="SVGID_00000057852825171774119520000007327592852651649438_" gradientUnits="userSpaceOnUse" x1="26.0573" y1="20.5832" x2="24.9791" y2="11.014">
			<stop  offset="0" style="stop-color:#FCE3CF"/>
			<stop  offset="1" style="stop-color:#F4AC87"/>
		</linearGradient>
		<path style="fill:url(#SVGID_00000057852825171774119520000007327592852651649438_);" d="M33.8,16.3c1.4,0.8,2.5,2.4,3.4,4.1
			c-0.7-2.1-1.7-4.1-3-5.9c-0.1,0.1-0.3,0.5-0.5,0.8l0,0l-0.1,0c0,0-0.1,0-0.1,0c-0.8,0-3.5-1.2-3.6-1.7c0-0.3,0-0.7,0-0.9
			c-0.5-0.2-2.5-1-5.2-1c-2.9,0-5.6,0.9-8,2.7c-0.9,0.7-1.7,1.4-2.4,2.2c0.4-0.1,0.8-0.1,1.2-0.1c0.2,0,0.4,0,0.5,0
			C20.8,11.5,28.7,13.3,33.8,16.3z"/>
		
			<linearGradient id="SVGID_00000135660481594157534440000015109513835977349796_" gradientUnits="userSpaceOnUse" x1="26.0478" y1="14.46" x2="22.6771" y2="39.2906">
			<stop  offset="0" style="stop-color:#FCE3CF"/>
			<stop  offset="1" style="stop-color:#F4AC87"/>
		</linearGradient>
		<path style="fill:url(#SVGID_00000135660481594157534440000015109513835977349796_);" d="M38.3,26.7l0-0.3c-0.1-2-0.4-4-1.1-6
			c-0.9-1.7-2-3.3-3.4-4.1c-5.1-3-13-4.8-17.7,0.2c3.8,0.3,6.8,3.4,6.8,7.3c0,2.8-1.6,5.2-3.9,6.5c0.1,0.4,0.4,0.8,0.7,1.2
			c0.9,1,2.3,1.5,4.3,1.5c1.9,0,3.4-0.5,4.3-1.5c1.1-1.2,1-2.6,1-2.6l0.1-0.1c0,0.1,0.3,1.7-0.9,2.9c-1,1-2.5,1.7-4.5,1.7
			c-2.1,0-3.4-0.6-4.4-1.6c-0.4-0.4-0.8-1.1-0.9-1.5c-0.9,0.4-2.1,0.7-3.2,0.7c-2.3,0-4.4-1.1-5.8-2.8c0.1,4.5,2.9,8.5,7.3,10.5
			c0.1,0,0.6,0.2,1.1,0.5c0.6,0.3,3.8,0.9,5.8,0.9c1.7,0,3.6-0.3,5.1-0.7c0,0,1.6-0.7,1.8-0.7c4.6-2,7.4-6,7.4-10.6
			C38.4,27.7,38.4,27.2,38.3,26.7z M31.3,17.6c0.9,0,1.7,0.6,2.1,1.4l-0.2,0.1c0,0,0,0,0,0c-0.3-0.7-1.1-1.1-1.8-1.1
			c-0.8,0-1.5,0.4-1.8,1.1c0,0,0,0,0,0L29.2,19C29.6,18.1,30.4,17.6,31.3,17.6z M24.6,29c-0.2,0.1-0.6,0.2-1,0.2
			c-0.4,0-0.8-0.1-1-0.3c-0.3-0.2-0.5-0.7-0.4-1.2c0.2-0.7,0.9-0.6,1.3-0.5c0.2,0,0.4,0.1,0.4,0c0,0,0.1-0.1,0.1-0.1
			c0.2-1.2,0.2-2,0.2-2l0.1,0c0,0,0,0,0,0c0,0,0,0,0,0l0.1,0c0,0,0,0.1,0,0.3c0.5,1.2,0.7,2.3,0.1,3.6L24.6,29z M31.3,28
			c-1.5,0-2.7-1.2-2.7-2.7c0-1.5,1.2-2.7,2.7-2.7c1.5,0,2.7,1.2,2.7,2.7C34,26.8,32.7,28,31.3,28z M34.4,23.8
			c-0.5-1.3-1.8-1.8-3.1-1.8c-1.4,0-2.6,0.5-3.1,1.8l-0.3-0.1c0.6-1.4,1.9-2.4,3.5-2.4c1.5,0,2.9,1,3.5,2.4L34.4,23.8z"/>
		<path class="st47" d="M24.4,25.2c0,0.4,0.1,1,0,1.9c0,0.2-0.1,0.4-0.2,0.4c-0.2,0.1-0.5,0-0.7,0c-0.5-0.1-0.7-0.1-0.8,0.3
			c-0.1,0.3,0.1,0.8,0.2,0.9c0.4,0.3,1.3,0.2,1.6,0.1l0,0C25.1,27.5,24.9,26.4,24.4,25.2z"/>
		<path class="st48" d="M40.9,29.2c0.3-1.1,0.4-2.3-0.6-3.2c-0.3,0-0.7,0.1-1,0.2c0,0-0.4,0.2-0.7,0.4c0.1,0.5,0.1,1.1,0.1,1.6
			c0,1.3-0.3,2.6-0.7,3.8c0.1,0.2,0.2,0.4,0.3,0.5C38.6,31.7,39.5,30,40.9,29.2z"/>
		<path class="st48" d="M39.5,30.9c-0.5,0.7-0.8,1.5-0.9,1.7c0.6,0.4,1.4,0.6,2.1,0.6c0.3,0,0.6,0,0.9-0.1
			C40.5,33,39.4,32.3,39.5,30.9z"/>
		<path class="st44" d="M44.7,29.5c0-2-1.8-3.7-3.9-3.7c-0.2,0-0.3,0-0.5,0c0.9,1,0.9,2.1,0.6,3.2c0.5-0.3,1.1-0.5,1.7-0.5l0,0.2
			c-1.4,0-2.4,1-3,2c-0.2,1.4,1,2.1,2.1,2.2C43.4,32.7,44.7,31.3,44.7,29.5z"/>
		<path class="st48" d="M11.8,50.7c0.2-0.1,0.3-0.2,0.4-0.3c0.1-0.2,0.1-0.4,0.1-0.5l-0.1-0.4c-0.1-0.3-0.4-0.7-0.7-0.7
			c-0.1,0-0.1,0-0.2,0c-0.2,0.1-0.3,0.2-0.4,0.3c-0.1,0.2-0.1,0.4-0.1,0.5l0.1,0.5c0.1,0.3,0.4,0.5,0.7,0.5
			C11.6,50.7,11.7,50.7,11.8,50.7z"/>
		<path class="st19" d="M5.5,26.5c-1,0.7-1.6,2-1.6,3.4c0,0.9,0.3,1.7,0.8,2.3C3.9,30.4,4.4,28.1,5.5,26.5z"/>
		<path class="st44" d="M5.6,28.9v-0.4c0.6,0,1.2,0.2,1.7,0.5c0.8-0.8,1-2,0.9-3.1c-0.3-0.1-0.5-0.1-0.8-0.1c-0.7,0-1.3,0.2-1.9,0.6
			c-1.1,1.7-1.6,4-0.8,5.7c0.2,0.2,0.4,0.4,0.6,0.5c0,0,0,0,0,0c0,0,0,0,0,0c0.5,0.3,1,0.5,1.7,0.5c0.1,0,0.2,0,0.3,0
			c0.8,0,1.5-0.2,2.1-0.6C9.4,32.2,8,28.9,5.6,28.9z"/>
		<path class="st48" d="M9.8,32.4c0.1-0.1,0.3-0.2,0.4-0.4c-0.5-1.2-0.8-2.5-0.8-3.9c0-0.1,0-0.2,0-0.3c-0.4-0.5-0.6-1.1-0.8-1.7
			C8.5,26,8.3,26,8.2,26C8.3,27,8.1,28.2,7.3,29C8.7,29.9,9.6,31.7,9.8,32.4z"/>
		
			<linearGradient id="SVGID_00000069365005676656261560000006558602535089505191_" gradientUnits="userSpaceOnUse" x1="12.9061" y1="53.2815" x2="8.6534" y2="51.185">
			<stop  offset="0" style="stop-color:#FCE3CF"/>
			<stop  offset="1" style="stop-color:#F4AC87"/>
		</linearGradient>
		<path style="fill:url(#SVGID_00000069365005676656261560000006558602535089505191_);" d="M10.6,50.6l-0.4-1.3
			c-0.3-0.9-1-1.5-1.8-1.7c0.9,1,0.6,2.5,0.1,3.6c-0.4,0.8-1.1,1.9-2,2.4c0.5,0.3,1,0.5,1.6,0.5c0.3,0,0.5,0,0.7-0.1
			c0,0,0.2-0.1,0.3-0.1c0,0,0,0,0,0c0.3-0.1,0.5-0.3,0.8-0.5c0,0,0.2-0.1,0.3-0.3C10.7,52.4,10.9,51.5,10.6,50.6z"/>
		
			<linearGradient id="SVGID_00000153674488307132121740000011279009832203114643_" gradientUnits="userSpaceOnUse" x1="5.545" y1="48.5045" x2="8.6898" y2="52.0986">
			<stop  offset="0" style="stop-color:#FCE3CF"/>
			<stop  offset="1" style="stop-color:#F4AC87"/>
		</linearGradient>
		<path style="fill:url(#SVGID_00000153674488307132121740000011279009832203114643_);" d="M8.5,51.2c0.5-1.1,0.8-2.7-0.1-3.6
			c-0.2-0.1-0.5-0.1-0.7-0.1c-0.2,0-0.4,0-0.6,0.1l-0.4,0.1c-0.3,0.1-0.7,0.3-0.9,0.6c-0.2,0.2-0.3,0.3-0.3,0.3
			c-0.5,0.7-0.8,1.8-0.5,2.7l0.4,1.1c0.2,0.5,0.6,1,1,1.3C7.4,53.1,8.1,52,8.5,51.2z"/>
		<path class="st19" d="M11.7,42.2c0-0.1,0-0.2,0-0.4c-0.8,0.3-3.4,1.4-4.5,4.4C8.3,44.6,9.7,43,11.7,42.2z"/>
		
			<linearGradient id="SVGID_00000062167010443964211110000002070186304742799263_" gradientUnits="userSpaceOnUse" x1="5.5748" y1="43.6376" x2="12.7633" y2="45.7043">
			<stop  offset="0" style="stop-color:#FCE3CF"/>
			<stop  offset="1" style="stop-color:#F4AC87"/>
		</linearGradient>
		<path style="fill:url(#SVGID_00000062167010443964211110000002070186304742799263_);" d="M7.1,46.3c-0.1,0.3-0.2,0.6-0.3,0.9
			c0,0,0,0.1,0,0.1c0.3-0.1,0.5-0.1,0.8-0.1c0.4,0,0.8,0.1,1.2,0.2c0.6-3.2,2.4-4,3-4.2c0-0.3-0.1-0.6-0.1-1
			C9.7,43,8.3,44.6,7.1,46.3z"/>
		<path class="st44" d="M18.9,29.9c2.2-1.2,3.6-3.5,3.6-6.1c0-3.8-3.1-6.9-6.9-6.9c-0.5,0-1.1,0.1-1.6,0.2c-3.7,4.4-4,9.2-4.1,9.3
			l0,0.1l0,0c0,0,0,0,0,0l0,0.1h0c-0.1,0.4-0.1,0.8-0.1,1.2c1.2,1.8,3.4,3.1,5.8,3.1c1,0,2.1-0.3,3-0.7c0.1,0,0.1,0,0.2-0.1
			c-0.1-0.5-0.1-1-0.1-1.1c0,0,0-0.1,0-0.1l0.1,0.1C18.8,28.9,18.7,29.4,18.9,29.9z M16.7,17.6c0.9,0,1.7,0.6,2.1,1.4l-0.2,0.1
			c0,0,0,0,0-0.1c-0.3-0.7-1.1-1.1-1.9-1.1c-0.7,0-1.5,0.4-1.8,1.1c0,0,0,0,0,0L14.7,19C15,18.1,15.8,17.6,16.7,17.6z M13.3,23.6
			c0.6-1.4,1.9-2.4,3.5-2.4c1.5,0,2.9,1,3.5,2.4l-0.3,0.1c-0.5-1.3-1.8-1.8-3.1-1.8c-1.4,0-2.6,0.5-3.1,1.8L13.3,23.6z M16.7,28
			c-1.5,0-2.7-1.2-2.7-2.7c0-1.5,1.2-2.7,2.7-2.7c1.5,0,2.7,1.2,2.7,2.7C19.4,26.8,18.2,28,16.7,28z"/>
		<g>
			<defs>
				<path id="SVGID_00000111187301442246625810000001644809271489819300_" d="M38.3,26.7l0-0.3c-0.1-4.1-1.5-8.4-4-11.9
					c-0.1,0.1-0.3,0.5-0.5,0.8l0,0l-0.1,0c0,0-0.1,0-0.1,0c-0.8,0-3.5-1.2-3.6-1.7c0-0.3,0-0.7,0-0.9c-0.5-0.2-2.5-1-5.2-1
					c-2.9,0-5.6,0.9-8,2.7c-0.9,0.7-1.7,1.4-2.4,2.2c0.4-0.1,0.8-0.1,1.2-0.1c4,0,7.3,3.3,7.3,7.3c0,2.8-1.6,5.2-3.9,6.5
					c0.1,0.4,0.4,0.8,0.7,1.2c0.9,1,2.3,1.5,4.3,1.5c1.9,0,3.4-0.5,4.3-1.5c1.1-1.2,1-2.6,1-2.6l0.1-0.1c0,0.1,0.3,1.7-0.9,2.9
					c-1,1-2.5,1.7-4.5,1.7c-2.1,0-3.4-0.6-4.4-1.6c-0.4-0.4-0.8-1.1-0.9-1.5c-0.9,0.4-2.1,0.7-3.2,0.7c-2.3,0-4.4-1.1-5.8-2.8
					c0.1,4.5,2.9,8.5,7.3,10.5c0.1,0,0.6,0.2,1.1,0.5c0.6,0.3,3.8,0.9,5.8,0.9c1.7,0,3.6-0.3,5.1-0.7c0,0,1.6-0.7,1.8-0.7
					c4.6-2,7.4-6,7.4-10.6C38.4,27.7,38.4,27.2,38.3,26.7z M23.5,29.1c-0.4,0-0.8-0.1-1-0.3c-0.3-0.2-0.5-0.7-0.4-1.2
					c0.2-0.7,0.9-0.6,1.3-0.5c0.2,0,0.4,0.1,0.4,0c0,0,0.1-0.1,0.1-0.1c0.2-1.2,0.2-2,0.2-2l0.2,0c0,0,0.2,0.9,0,2.1
					c0,0.2-0.1,0.4-0.2,0.4c-0.2,0.1-0.5,0-0.7,0c-0.5-0.1-0.7-0.1-0.8,0.3c-0.1,0.3,0.1,0.8,0.2,0.9c0.4,0.3,1.3,0.2,1.6,0.1
					l0.1,0.1C24.4,29,24,29.1,23.5,29.1z M31.3,17.6c0.9,0,1.7,0.6,2.1,1.4l-0.2,0.1c0,0,0,0,0,0c-0.3-0.7-1.1-1.1-1.8-1.1
					c-0.8,0-1.5,0.4-1.8,1.1c0,0,0,0,0,0L29.2,19C29.6,18.1,30.4,17.6,31.3,17.6z M31.3,28c-1.5,0-2.7-1.2-2.7-2.7
					c0-1.5,1.2-2.7,2.7-2.7c1.5,0,2.7,1.2,2.7,2.7C34,26.8,32.7,28,31.3,28z M34.4,23.8c-0.5-1.3-1.8-1.8-3.1-1.8
					c-1.4,0-2.6,0.5-3.1,1.8l-0.3-0.1c0.6-1.4,1.9-2.4,3.5-2.4c1.5,0,2.9,1,3.5,2.4L34.4,23.8z"/>
			</defs>
			<clipPath id="SVGID_00000054237616859004422010000016296804337548058542_">
				<use xlink:href="#SVGID_00000111187301442246625810000001644809271489819300_"  style="overflow:visible;"/>
			</clipPath>
			
				<radialGradient id="SVGID_00000079450638702628997490000005889938789660119689_" cx="13.8213" cy="30.928" r="7.0051" gradientUnits="userSpaceOnUse">
				<stop  offset="5.376340e-02" style="stop-color:#E60012"/>
				<stop  offset="0.2614" style="stop-color:#E7312B;stop-opacity:0.8864"/>
				<stop  offset="0.6022" style="stop-color:#EA595C;stop-opacity:0.7"/>
				<stop  offset="0.6733" style="stop-color:#EA5C5F;stop-opacity:0.5748"/>
				<stop  offset="0.7352" style="stop-color:#EC676A;stop-opacity:0.4659"/>
				<stop  offset="0.7936" style="stop-color:#EE797B;stop-opacity:0.3632"/>
				<stop  offset="0.8499" style="stop-color:#F19294;stop-opacity:0.2641"/>
				<stop  offset="0.9047" style="stop-color:#F5B3B4;stop-opacity:0.1677"/>
				<stop  offset="0.9576" style="stop-color:#FADADA;stop-opacity:7.462656e-02"/>
				<stop  offset="1" style="stop-color:#FFFFFF;stop-opacity:0"/>
			</radialGradient>
			
				<path style="clip-path:url(#SVGID_00000054237616859004422010000016296804337548058542_);fill:url(#SVGID_00000079450638702628997490000005889938789660119689_);" d="
				M20.8,30.9c0,3.9-3.1,7-7,7s-7-3.1-7-7c0-3.9,3.1-7,7-7S20.8,27.1,20.8,30.9z"/>
			
				<radialGradient id="SVGID_00000089554520438517227290000013030779201301546885_" cx="33.9582" cy="30.928" r="7.0051" gradientUnits="userSpaceOnUse">
				<stop  offset="5.376340e-02" style="stop-color:#E60012"/>
				<stop  offset="0.2614" style="stop-color:#E7312B;stop-opacity:0.8864"/>
				<stop  offset="0.6022" style="stop-color:#EA595C;stop-opacity:0.7"/>
				<stop  offset="0.6733" style="stop-color:#EA5C5F;stop-opacity:0.5748"/>
				<stop  offset="0.7352" style="stop-color:#EC676A;stop-opacity:0.4659"/>
				<stop  offset="0.7936" style="stop-color:#EE797B;stop-opacity:0.3632"/>
				<stop  offset="0.8499" style="stop-color:#F19294;stop-opacity:0.2641"/>
				<stop  offset="0.9047" style="stop-color:#F5B3B4;stop-opacity:0.1677"/>
				<stop  offset="0.9576" style="stop-color:#FADADA;stop-opacity:7.462656e-02"/>
				<stop  offset="1" style="stop-color:#FFFFFF;stop-opacity:0"/>
			</radialGradient>
			
				<path style="clip-path:url(#SVGID_00000054237616859004422010000016296804337548058542_);fill:url(#SVGID_00000089554520438517227290000013030779201301546885_);" d="
				M41,30.9c0,3.9-3.1,7-7,7s-7-3.1-7-7c0-3.9,3.1-7,7-7S41,27.1,41,30.9z"/>
		</g>
		<g>
			<defs>
				<path id="SVGID_00000168109103830324212120000014702146853990429115_" d="M18.9,29.9c2.2-1.2,3.6-3.5,3.6-6.1
					c0-3.8-3.1-6.9-6.9-6.9c-0.5,0-1.1,0.1-1.6,0.2c-3.7,4.4-4,9.2-4.1,9.3l0,0.1l0,0c0,0,0,0,0,0l0,0.1h0c-0.1,0.4-0.1,0.8-0.1,1.2
					c1.2,1.8,3.4,3.1,5.8,3.1c1,0,2.1-0.3,3-0.7c0.1,0,0.1,0,0.2-0.1c-0.1-0.5-0.1-1-0.1-1.1c0,0,0-0.1,0-0.1l0.1,0.1
					C18.8,28.9,18.7,29.4,18.9,29.9z M16.7,17.6c0.9,0,1.7,0.6,2.1,1.4l-0.2,0.1c0,0,0,0,0-0.1c-0.3-0.7-1.1-1.1-1.9-1.1
					c-0.7,0-1.5,0.4-1.8,1.1c0,0,0,0,0,0L14.7,19C15,18.1,15.8,17.6,16.7,17.6z M13.3,23.6c0.6-1.4,1.9-2.4,3.5-2.4
					c1.5,0,2.9,1,3.5,2.4l-0.3,0.1c-0.5-1.3-1.8-1.8-3.1-1.8c-1.4,0-2.6,0.5-3.1,1.8L13.3,23.6z M16.7,28c-1.5,0-2.7-1.2-2.7-2.7
					c0-1.5,1.2-2.7,2.7-2.7c1.5,0,2.7,1.2,2.7,2.7C19.4,26.8,18.2,28,16.7,28z"/>
			</defs>
			<clipPath id="SVGID_00000062913923852403677190000003000321121375931057_">
				<use xlink:href="#SVGID_00000168109103830324212120000014702146853990429115_"  style="overflow:visible;"/>
			</clipPath>
			
				<radialGradient id="SVGID_00000176766033978610476540000009794156211534422680_" cx="13.8213" cy="30.928" r="7.0051" gradientUnits="userSpaceOnUse">
				<stop  offset="5.376340e-02" style="stop-color:#E60012"/>
				<stop  offset="0.2614" style="stop-color:#E7312B;stop-opacity:0.8864"/>
				<stop  offset="0.6022" style="stop-color:#EA595C;stop-opacity:0.7"/>
				<stop  offset="0.6733" style="stop-color:#EA5C5F;stop-opacity:0.5748"/>
				<stop  offset="0.7352" style="stop-color:#EC676A;stop-opacity:0.4659"/>
				<stop  offset="0.7936" style="stop-color:#EE797B;stop-opacity:0.3632"/>
				<stop  offset="0.8499" style="stop-color:#F19294;stop-opacity:0.2641"/>
				<stop  offset="0.9047" style="stop-color:#F5B3B4;stop-opacity:0.1677"/>
				<stop  offset="0.9576" style="stop-color:#FADADA;stop-opacity:7.462656e-02"/>
				<stop  offset="1" style="stop-color:#FFFFFF;stop-opacity:0"/>
			</radialGradient>
			
				<path style="clip-path:url(#SVGID_00000062913923852403677190000003000321121375931057_);fill:url(#SVGID_00000176766033978610476540000009794156211534422680_);" d="
				M20.8,30.9c0,3.9-3.1,7-7,7s-7-3.1-7-7c0-3.9,3.1-7,7-7S20.8,27.1,20.8,30.9z"/>
		</g>
		<path class="st28" d="M12,28c0,0.2-0.1,0.3-0.3,0.3c-0.2,0-0.3-0.1-0.3-0.3c0-0.2,0.1-0.3,0.3-0.3C11.9,27.7,12,27.9,12,28z"/>
		<path class="st19" d="M11.1,29.6c-0.5-0.4-0.9-0.8-1.3-1.3c0.1,4.5,2.9,8.5,7.3,10.5c0.1,0,0.6,0.2,1.1,0.5
			c0.6,0.3,3.8,0.9,5.8,0.9C12.7,38.8,11.3,32.2,11.1,29.6z"/>
		<path class="st55" d="M17.9,25.1c0,0.6-0.5,1.1-1.1,1.1c-0.6,0-1.1-0.5-1.1-1.1c0-0.6,0.5-1.1,1.1-1.1
			C17.4,24,17.9,24.5,17.9,25.1z"/>
		<path class="st55" d="M32.4,25.1c0,0.6-0.5,1.1-1.1,1.1c-0.6,0-1.1-0.5-1.1-1.1c0-0.6,0.5-1.1,1.1-1.1
			C31.9,24,32.4,24.5,32.4,25.1z"/>
		<path class="st56" d="M33.5,25.6c0,1-0.8,1.8-1.8,1.8c-1,0-1.8-0.8-1.8-1.8s0.8-1.8,1.8-1.8C32.7,23.8,33.5,24.6,33.5,25.6z"/>
		<path class="st57" d="M18.9,25.6c0,1-0.8,1.8-1.8,1.8c-1,0-1.8-0.8-1.8-1.8s0.8-1.8,1.8-1.8C18.1,23.8,18.9,24.6,18.9,25.6z"/>
		<path class="st28" d="M36.6,28c0,0.2-0.1,0.3-0.3,0.3S36,28.2,36,28c0-0.2,0.1-0.3,0.3-0.3S36.6,27.9,36.6,28z"/>
		<path class="st58" d="M22.3,23.9c0,3.7-3,6.6-6.6,6.6c-3.7,0-6.6-3-6.6-6.6c0-3.7,3-6.6,6.6-6.6C19.3,17.2,22.3,20.2,22.3,23.9z"
			/>
		<path class="st58" d="M22.6,23.9c0,3.9-3.1,7-7,7c-3.9,0-7-3.1-7-7c0-3.9,3.1-7,7-7C19.5,16.9,22.6,20,22.6,23.9z"/>
		<path class="st59" d="M14,20.7c0,1.1-0.9,2-2,2c-1.1,0-2-0.9-2-2c0-1.1,0.9-2,2-2C13.1,18.7,14,19.6,14,20.7z"/>
		<path class="st60" d="M30.7,24c0.2,0.2,0.2,0.5,0,0.6c-0.2,0.2-0.5,0.2-0.6,0c-0.2-0.2-0.5-0.8-0.3-1C29.9,23.5,30.6,23.8,30.7,24
			z"/>
		<path class="st60" d="M16.1,24c0.2,0.2,0.2,0.5,0,0.6c-0.2,0.2-0.5,0.2-0.6,0c-0.2-0.2-0.5-0.8-0.3-1C15.3,23.5,15.9,23.8,16.1,24
			z"/>
		
			<linearGradient id="SVGID_00000003791310278822793540000014872252106177303993_" gradientUnits="userSpaceOnUse" x1="31.7089" y1="-0.7047" x2="30.3911" y2="76.4456">
			<stop  offset="0" style="stop-color:#7B7E76"/>
			<stop  offset="1" style="stop-color:#2F3B35"/>
		</linearGradient>
		<path style="fill:url(#SVGID_00000003791310278822793540000014872252106177303993_);" d="M31.3,22.6c-1.5,0-2.7,1.2-2.7,2.7
			c0,1.5,1.2,2.7,2.7,2.7c1.5,0,2.7-1.2,2.7-2.7C34,23.8,32.7,22.6,31.3,22.6z M33.6,25.8c-0.2,1-1.1,1.5-2.2,1.5
			c-1.3,0-2.4-0.7-2.4-2c0-1.3,1-2.4,2.3-2.4c1.3,0,2.3,1.1,2.3,2.4C33.6,25.5,33.6,25.7,33.6,25.8z"/>
		
			<linearGradient id="SVGID_00000180350858471350180000000010645129889454082210_" gradientUnits="userSpaceOnUse" x1="17.1809" y1="-0.9529" x2="15.863" y2="76.1975">
			<stop  offset="0" style="stop-color:#7B7E76"/>
			<stop  offset="1" style="stop-color:#2F3B35"/>
		</linearGradient>
		<path style="fill:url(#SVGID_00000180350858471350180000000010645129889454082210_);" d="M16.7,22.6c-1.5,0-2.7,1.2-2.7,2.7
			c0,1.5,1.2,2.7,2.7,2.7c1.5,0,2.7-1.2,2.7-2.7C19.4,23.8,18.2,22.6,16.7,22.6z M16.8,27.3c-1.3,0-2.4-0.7-2.4-2
			c0-1.3,1-2.5,2.3-2.5s2.3,1.2,2.3,2.5c0,0.2,0,0.3,0,0.5C18.8,26.8,17.9,27.3,16.8,27.3z"/>
		
			<linearGradient id="SVGID_00000059292595153342309820000000151636307827787160_" gradientUnits="userSpaceOnUse" x1="17.1556" y1="-0.9538" x2="15.8378" y2="76.198">
			<stop  offset="0" style="stop-color:#7B7E76"/>
			<stop  offset="1" style="stop-color:#2F3B35"/>
		</linearGradient>
		<path style="fill:url(#SVGID_00000059292595153342309820000000151636307827787160_);" d="M16.7,22c1.4,0,2.6,0.5,3.1,1.8l0.3-0.1
			c-0.6-1.4-1.9-2.4-3.5-2.4c-1.5,0-2.9,0.9-3.5,2.4l0.3,0.1C14.1,22.5,15.3,22,16.7,22z"/>
		
			<linearGradient id="SVGID_00000047751707786875779190000011467502816937897876_" gradientUnits="userSpaceOnUse" x1="31.667" y1="-0.7058" x2="30.3492" y2="76.4459">
			<stop  offset="0" style="stop-color:#7B7E76"/>
			<stop  offset="1" style="stop-color:#2F3B35"/>
		</linearGradient>
		<path style="fill:url(#SVGID_00000047751707786875779190000011467502816937897876_);" d="M31.2,21.3c-1.5,0-2.9,0.9-3.5,2.4
			l0.3,0.1c0.5-1.3,1.7-1.8,3.1-1.8c1.4,0,2.6,0.5,3.1,1.8l0.3-0.1C34.2,22.2,32.8,21.3,31.2,21.3z"/>
		
			<linearGradient id="SVGID_00000158715339552206585850000006769488377949775774_" gradientUnits="userSpaceOnUse" x1="17.0761" y1="-0.9556" x2="15.7582" y2="76.1977">
			<stop  offset="0" style="stop-color:#7B7E76"/>
			<stop  offset="1" style="stop-color:#2F3B35"/>
		</linearGradient>
		<path style="fill:url(#SVGID_00000158715339552206585850000006769488377949775774_);" d="M14.9,19.1c0.3-0.7,1.1-1.1,1.8-1.1
			c0.7,0,1.6,0.5,1.9,1.1c0,0,0,0,0,0.1l0.2-0.1c-0.3-0.8-1.2-1.4-2.1-1.4c-0.9,0-1.7,0.5-2.1,1.4L14.9,19.1
			C14.9,19.1,14.9,19.1,14.9,19.1z"/>
		
			<linearGradient id="SVGID_00000137821532558500937030000009171106649921701564_" gradientUnits="userSpaceOnUse" x1="31.6294" y1="-0.7071" x2="30.3115" y2="76.4469">
			<stop  offset="0" style="stop-color:#7B7E76"/>
			<stop  offset="1" style="stop-color:#2F3B35"/>
		</linearGradient>
		<path style="fill:url(#SVGID_00000137821532558500937030000009171106649921701564_);" d="M29.5,19.1c0.3-0.7,1.1-1.1,1.8-1.1
			c0.7,0,1.5,0.5,1.8,1.1c0,0,0,0,0,0l0.2-0.1c-0.3-0.8-1.2-1.4-2.1-1.4c-0.9,0-1.7,0.5-2.1,1.4L29.5,19.1
			C29.5,19.1,29.5,19.1,29.5,19.1z"/>
		
			<linearGradient id="SVGID_00000065774102618616392310000015802926245899183263_" gradientUnits="userSpaceOnUse" x1="23.8516" y1="-0.8392" x2="22.5338" y2="76.3121">
			<stop  offset="0" style="stop-color:#7B7E76"/>
			<stop  offset="1" style="stop-color:#2F3B35"/>
		</linearGradient>
		<path style="fill:url(#SVGID_00000065774102618616392310000015802926245899183263_);" d="M22.9,28.7c-0.2-0.2-0.3-0.6-0.2-0.9
			c0.1-0.4,0.3-0.4,0.8-0.3c0.3,0,0.5,0.1,0.7,0c0.1-0.1,0.2-0.3,0.2-0.4c0.2-1.2,0-2.1,0-2.1l-0.2,0c0,0,0,0.9-0.2,2
			c0,0.1,0,0.1-0.1,0.1c-0.1,0.1-0.3,0-0.4,0c-0.4-0.1-1.1-0.2-1.3,0.5c-0.1,0.5,0.1,0.9,0.4,1.2c0.2,0.2,0.6,0.3,1,0.3
			c0.4,0,0.8-0.1,1-0.2l-0.1-0.1C24.2,28.9,23.3,29.1,22.9,28.7z"/>
		
			<linearGradient id="SVGID_00000139279057595600308450000012279480693337216444_" gradientUnits="userSpaceOnUse" x1="6.4463" y1="-1.1032" x2="5.129" y2="76.0151">
			<stop  offset="0" style="stop-color:#7B7E76"/>
			<stop  offset="1" style="stop-color:#2F3B35"/>
		</linearGradient>
		<path style="fill:url(#SVGID_00000139279057595600308450000012279480693337216444_);" d="M5.2,74.9C5.2,74.9,5.1,74.9,5.2,74.9
			L5.2,74.9L5.2,74.9z"/>
		
			<linearGradient id="SVGID_00000075142621710859555850000007861332207043402147_" gradientUnits="userSpaceOnUse" x1="23.7035" y1="-0.8422" x2="22.3856" y2="76.3104">
			<stop  offset="0" style="stop-color:#7B7E76"/>
			<stop  offset="1" style="stop-color:#2F3B35"/>
		</linearGradient>
		<path style="fill:url(#SVGID_00000075142621710859555850000007861332207043402147_);" d="M45.6,12c-1.3-0.8-2.5-1.7-3.8-2.4
			c0.5-0.4,1.7-1.6,3.1-2.2l0.4-0.2l-0.4-0.1c-2.7-0.9-5.5-1.7-8.5,0.3c-1.6,1-2.4,2.1-2.9,3c0.2-3-1.7-8.4-5.9-11.9
			c-3-2.4-8.3-4.7-16.2-1.5L11-2.9L13.3,0c-3.5,0.9-4.9,2.5-5,2.6L8.1,2.8l3.2,2C6.7,7.2,3.8,10.9,3.7,11l-0.2,0.3l5.6,0.5
			c-1.8,2.1-2.9,3.9-2.9,3.9l0,0.1l0.1,0.6L5.8,17l0.5,1.6L5.6,20l0.9,0.7C6.6,21,6.6,23,7.6,25.5c-0.1,0-0.1,0-0.1,0c0,0,0,0-0.1,0
			c-2.4,0-4.3,1.8-4.3,4c0,2.2,1.9,4,4.3,4c1.1,0,2.2-0.4,3-1.2c1.2,2.7,3.5,5,6.4,6.4c-0.3,0.1-0.6,0.4-0.7,0.7
			c-0.4-0.4-1.6-0.9-4.6-0.9l-0.2,0l0,0.2c0.1,0.9,0.2,1.9,0.3,2.8c-0.7,0.2-3.9,1.4-5,5.1c-2.1-3.6-3.2-5.5-3.9-5.5
			c0,0-0.1,0-0.1,0c0.4-0.3,0.6-0.6,0.8-1.1c0.1-0.5,0.1-1-0.2-1.5c-0.4-0.7-2.2-2-3.3-2.7c0,0-0.6-0.5-0.6-0.4c0,0,1.9,3.2,1.9,3.2
			l0.1,0c0.1,0,0.1,0,0.1,0c0.4,0,0.6,0.3,0.6,0.6c0,0.4-0.3,0.6-0.6,0.6s-0.6-0.3-0.6-0.6c0-0.2,0.1-0.3,0.2-0.4l0,0
			c0,0-1.7-3.3-1.8-3.3c-0.1,0,0,0.8,0,0.8c0.1,1.3,0.3,3.5,0.7,4.2c0.3,0.6,1,1,1.7,1c0.3,0,0.6-0.1,0.9-0.2
			c-0.6,0.6,0.5,2.6,3,6.8c-0.7,0.8-0.9,1.9-0.6,3l0.4,1.3c0.4,1.2,1.6,2.1,2.8,2.1c0.3,0,0.6-0.1,0.9-0.2l0,0
			c1.3,2.1,2.7,4.2,3.2,4.2h0c0,0,0.1,0,0.1,0c0.1-0.1,0.3-0.2-0.5-2.1l6.1,2.2c-0.1,1.4-1.2,10.2-1.7,12.4
			c-0.3-0.2-0.3-0.2-0.6-0.4c0,0,0,0,0,0l0,0c-0.5-0.3-1.1-0.7-1.7-1.1c-0.2-0.1-0.5-0.3-0.7-0.4c-0.1-0.1-0.3-0.2-0.4-0.2
			c0,0,0,0,0,0l0,0c-0.9-0.6-1.8-1-2.8-1.1c-0.5,0-1,0-1.5,0.1c-0.1,0-0.3,0.1-0.4,0.1l0,0c0,0-0.1,0-0.1,0c-1.8,0.7-3,2.4-3,4.3
			c0,0.2,0,0.4,0,0.6c0,0,0,0,0,0.1l0,0.3c0,0.3,0,0.4,0.1,0.7c0,0.1,0,0.3,0,0.3l0.1,0.7c0,0,0,0,0,0l-0.4,0l0.1,1.1
			c0,0.4,0.7,0.7,1.3,0.7h0l10.4-0.3c0.1,0,0.2,0,0.4,0c0.3,0,0.7,0,1.1,0h0c0.5,0,0.9,0,1.2,0c0.3,0,0.7-0.1,0.7-0.4l0-1.1l-0.3,0
			l0-0.3c0,0,0,0,0,0c0.2-0.4,1-1.7,1-2.8c0-0.4-0.1-1.8-0.1-3.5c-0.1-3.1-0.3-7.3-0.3-9l1.9,0.7l1.8-1.8l1.9,1.7l1.6-0.6
			c0,1.7-0.1,5.9-0.3,9c-0.1,1.7-0.1,3-0.1,3.5c0,1.1,0.8,2.5,1,2.8c0,0,0,0,0,0l0,0.3l-0.3,0l0,1.1c0,0.3,0.3,0.4,1.9,0.4
			c0.4,0,0.8,0,1.1,0c0.2,0,0.3,0,0.4,0l10.4,0.3h0c0.6,0,1.3-0.3,1.3-0.7l0.1-1.1l-0.4,0.1l0,0c0,0,0,0-0.1,0l0.1-0.7
			c0-0.1,0-0.1,0-0.2c0.1-0.2,0.1-0.5,0.1-0.7l0-0.3c0,0,0,0,0-0.1c0-0.2,0-0.4,0-0.6c0-1.9-1.2-3.6-3-4.3c0,0-0.1,0-0.1-0.1
			c-0.1-0.1-0.3-0.1-0.4-0.1c-0.4-0.1-0.8-0.1-1.2-0.1c-0.1,0-0.2,0-0.3,0c-1,0-1.8,0.5-2.8,1.1l0,0c0,0,0,0,0,0
			c-0.1,0.1-0.3,0.2-0.4,0.2c-0.2,0.1-0.4,0.3-0.7,0.4c-0.6,0.4-1.2,0.7-1.7,1.1l0,0c0,0,0,0,0,0c-0.3,0.2-0.4,0.2-0.7,0.4
			c-0.5-2.2-1.5-11-1.6-12.4l6.3-2.3l0.1,0l0-0.1c0.2-0.2,0.6-0.9-3-9c-0.2-0.4-0.4-0.8-0.6-1.2c0.2-0.3,0.3-0.7,0.3-1l-0.1-0.3
			l3,0.4l0-0.2c0,0,0.1-0.5,0.2-1.3c0.4,0.1,1.7,0.7,2.4,2.6C38,46.2,38,46.3,38,46.3l-0.1,0.1l0.3,1.2c-0.8,0.5-1.4,1.4-1.4,2.3
			v2.2c0,1.5,1.4,2.8,3,2.8H40c1.7,0,3-1.3,3-2.8v-2.2c0-0.4-0.1-0.8-0.2-1.1c0.2-0.3,0.3-0.6,0.3-1V47c0-0.9-0.6-1.7-1.4-1.7
			c-0.3,0-0.6,0.1-0.9,0.3c-1.4-3-4.1-4-4.7-4.2c0.1-0.8,0.2-1.8,0.3-2.6l0-0.2l-0.2,0c-3,0-4.1,0.5-4.6,0.9
			c-0.1-0.2-0.3-0.4-0.5-0.5c3.1-1.4,5.5-3.7,6.7-6.5c0.8,0.7,1.8,1.1,2.9,1.1c2.4,0,4.3-1.8,4.3-4c0-2.1-1.3-3.8-3.4-4
			c0.2-0.5,0.4-1.6,0.7-3.3c0.4-2.1,0.5-3.1,0.5-3.2l0-0.3l0.5-0.4l-0.3-0.9l0.6-0.3l-0.1-0.1c0,0-0.4-0.9-1.3-2.1
			c0.2-0.2,2.1-1.8,4.4-1.7l0.7,0l-0.6-0.4C46.5,12.6,46,12.3,45.6,12z M36.5,7.7c2.7-1.8,5.1-1.1,7.6-0.2c0,0,0,0,0,0
			c-0.6,0.3-1.1,0.7-1.5,1c-0.6,0.4-1,0.8-1.2,1c-1.2-0.6-2.4-1-3.6-0.9c-0.1,0-0.2,0-0.3,0c-1.2,0.1-2.3,0.4-3.1,0.9
			c-0.2,0.1-0.3,0.2-0.5,0.4C34.4,9.2,35.3,8.5,36.5,7.7z M11.4-2.6c0.1,0,0.1-0.1,0.2-0.1C18-5.1,23.1-3.8,26.3-1.9
			c0.6,0.3,1.1,0.7,1.5,1.1c3.7,3,4.9,7.1,5.2,10.1c-0.3-1.3-1-2.9-2.2-4.4c-1.6-2.1-4.7-4.8-10.2-5.3c-2.9-0.3-5.2-0.1-7,0.3
			L11.4-2.6z M9,3L8.5,2.7C9.2,2,12.6-0.9,20.3-0.2c2.1,0.2,3.9,0.8,5.5,1.5c2.1,1,3.7,2.5,4.9,3.9C32,7,32.7,8.7,33,10
			c-0.1-0.2-0.2-0.3-0.3-0.5c-0.5-0.8-1.3-1.6-2.2-2.4C28,5,24,3.1,19.2,2.9c-0.1,0-0.3,0-0.4,0c-2.3,0-4.1,0.4-5.9,1.2
			c-0.3,0.1-0.5,0.2-0.8,0.4l0,0L9,3z M4.6,10.5L4.6,10.5c1.1-1.4,6.9-7.6,14.7-7.4c3.6,0.1,6.8,1.3,9.6,3.2c1.7,1.1,3,2.5,3.6,3.8
			c-0.2-0.3-0.4-0.5-0.7-0.8C29.6,6.7,25.2,4.3,20,5c-4.4,0.6-8.1,3.7-10.6,6.5L4.6,10.5z M6.8,20.6c0.1-0.3,0.6-2.1,2.3-4.7
			c1.9-2.9,5.7-5.9,7.6-6.5c-2.2,0.7-6.1,3.7-7.9,6.5c-1.5,2.3-2.1,3.8-2.3,4.4l-0.3-0.3L6,19.7l0.7-1.1c0.1-0.2,1.4-2.3,2.6-4.1
			l-0.1-0.1c0,0,0,0,0,0c-0.9,1.3-2,2.8-2.5,3.6c0,0.1-0.1,0.1-0.1,0.2c0,0,0,0.1-0.1,0.1L6.5,18l-0.2-0.9l0.4-0.6l0,0
			c0.2-0.4,1.5-2.6,3.3-4.3l0-0.1c-1.5,1.4-3,3.2-3.5,4l0-0.4C6.9,15,12.2,6.3,19.8,5.3c1.6-0.2,3.2-0.1,4.7,0.2
			c3.1,0.7,5.6,2.3,7.1,4c0.9,1,1.3,1.8,1.3,2.1c-0.1,0.7-0.4,1.7-0.7,2.1c-0.4-0.7-1-1.4-1.4-1.7c0,0-0.1-0.1-0.2-0.1
			c-0.9-0.4-2.9-1.1-5.4-1.1c-0.6,0-1.2,0-1.8,0.1c-4,0.5-7.1,2.1-9.5,4.6c-0.4,0.5-0.9,1-1.3,1.5c-2.6,1.1-4.5,3.7-4.5,6.7
			c0,0.4,0,0.8,0.1,1.1C7.4,22.7,6.9,20.9,6.8,20.6z M30.3,12.4c-0.1,0-2.3-1.1-5.5-1.1c-3,0-5.7,0.9-8.2,2.8
			c-1.1,0.8-2,1.7-2.8,2.6c-0.1,0-0.6,0.2-0.7,0.3c0.3-0.4,0.9-1.1,1.2-1.4c2.3-2.5,5.4-4,9.3-4.5c0.6-0.1,1.2-0.1,1.8-0.1
			c2.3,0,4.1,0.8,5.1,1.2l0,0c0,0,0.1,0,0.2,0.1c0.1,0.1,0.1,0.3,0,0.7c0,0.1-0.1,0.2-0.1,0.3c0,0.1,0,0.3,1.2,0.9
			c0.4,0.2,1.3,0.4,1.6,0.3c0.3,0,0.3-0.1,0.4-0.2c0-0.1,0.1-0.1,0.1-0.2c0-0.1,0.1-0.2,0.1-0.3c0-0.1,0.1-0.2,0.1-0.2
			c0,0,0.1,0,0.2,0c0,0,0.1,0.1,0.2,0.1c0.5,0.4,1.6,1.8,3.1,4.6c1.7,3.1,1.5,6.6,1.5,7.4c-0.1,0-0.1,0.1-0.2,0.1c0,0,0,0-0.1,0
			c0,0,0,0,0,0c-0.2-4-1.8-8.1-4.3-11.6c0-0.1-0.1-0.1-0.1-0.1l-0.2-0.1l0,0l-0.1,0.2c0,0-0.1,0.4-0.5,0.8c-0.8,0-3.2-1.2-3.4-1.5
			c0-0.3,0.2-0.9,0.2-0.9l0-0.1L30.3,12.4z M18.6,28.9C18.6,28.9,18.6,28.9,18.6,28.9c0,0.2-0.1,0.6,0.1,1.2c-0.1,0-0.1,0-0.2,0.1
			c-0.9,0.4-2,0.7-3,0.7c-2.4,0-4.5-1.2-5.8-3.1c0-0.4,0.1-0.8,0.1-1.2h0l0-0.1c0,0,0,0,0,0l0,0l0-0.1c0-0.1,0.3-4.9,4.1-9.3
			c0.5-0.1,1-0.2,1.6-0.2c3.8,0,6.9,3.1,6.9,6.9c0,2.6-1.5,4.9-3.6,6.1c-0.1-0.6-0.1-1-0.1-1L18.6,28.9z M9.4,26
			c0.2-2.9,1.6-6.1,3.4-8.5c0.1-0.1,0.5-0.2,0.6-0.2c-3.1,3.9-3.7,7.9-3.8,8.9C9.6,26.1,9.5,26,9.4,26z M9.6,26.5
			c0,0.2-0.1,0.4-0.1,0.7c-0.2-0.3-0.3-0.6-0.4-0.9C9.3,26.3,9.4,26.4,9.6,26.5z M9.1,25.9c0,0-0.1,0-0.1-0.1
			c-0.2-0.6-0.3-1.3-0.3-2c0-2.6,1.5-5,3.7-6.1C10.7,20.1,9.3,23.1,9.1,25.9z M33.6,13.7c-0.1,0.1-0.1,0.2-0.2,0.3
			c-0.1,0.3-0.2,0.4-0.3,0.4c-0.4,0-2.1-0.7-2.3-0.9c0-0.1,0.1-0.2,0.1-0.3c0-0.1,0.1-0.3,0.1-0.5c0.4,0.3,0.8,0.7,1,1.2l0.1,0.2
			l0.5-0.1C33.1,13.8,33.4,13.7,33.6,13.7C33.6,13.7,33.6,13.7,33.6,13.7z M9.5,32.6C9.5,32.6,9.5,32.6,9.5,32.6L9.5,32.6
			C9.5,32.6,9.5,32.6,9.5,32.6z M9.8,32.4c-0.3-0.9-1.8-3.9-4.2-3.9v0.4c2.5,0,3.8,3.3,3.9,3.7c-0.6,0.4-1.4,0.6-2.1,0.6
			c-0.1,0-0.2,0-0.3,0c-0.7,0-1.2-0.2-1.7-0.5c0,0,0,0,0,0c0,0,0,0,0,0c-0.9-0.6-1.4-1.6-1.4-2.9c0-2,1.3-3.9,3.5-3.9
			c0.4,0,0.9,0.1,1.3,0.2c0.2,0.6,0.5,1.2,0.8,1.7c0,0.1,0,0.2,0,0.3c0,1.4,0.3,2.7,0.8,3.9C10.1,32.2,9.9,32.3,9.8,32.4z
			 M16.3,39.9c0.1-0.4,0.5-0.8,1-0.8c0.3,0.1,0.7,0.3,1,0.4c0,0,0,0,0,0c0.1,0,0.2,0.1,0.2,0.3c0,0,0,0,0,0c0.1,0.2,0.1,0.3,0,0.5
			l-1,5.1c-0.1,0.5-0.5,0.8-1.1,0.8c-0.1,0-0.2,0-0.2,0c-0.4-0.1-0.7-0.3-0.8-0.6c0,0,0,0,0,0c0,0,0,0,0,0c-0.1-0.1-0.1-0.3-0.1-0.5
			c0,0,0-0.1,0-0.1c0,0,0,0,0,0c0,0,0,0,0,0L16.3,39.9z M11.8,39c3.2,0,4,0.7,4.2,0.9l-0.8,4.3l-2.8,0.4
			C12.3,43.9,11.9,41.3,11.8,39C11.7,39,11.8,39,11.8,39z M15,45.6c-0.3,0.5-0.5,1-0.8,1.5c-2.2,4.4-3,6.6-3.2,7.8
			c-0.2-0.4-0.5-0.9-0.7-1.4c0.6-0.7,0.9-1.6,0.7-2.5c0.1,0.1,0.3,0.1,0.5,0.1c0.1,0,0.2,0,0.3,0c0.3-0.1,0.5-0.3,0.6-0.5
			c0.1-0.3,0.2-0.5,0.1-0.8l-0.1-0.4c-0.1-0.5-0.6-0.8-1-0.8c-0.1,0-0.2,0-0.3,0c-0.3,0.1-0.5,0.3-0.6,0.5c0,0,0,0,0,0
			c-0.2-0.7-0.7-1.3-1.3-1.6c0.5-2.9,2.1-3.5,2.7-3.7c0,0,0,0,0,0c0.1,0.8,0.1,0.9,0.1,1l0,0.2l3-0.4L15,44.9
			C14.9,45.1,15,45.3,15,45.6z M10.9,50.2l-0.1-0.5c-0.1-0.2,0-0.4,0.1-0.5c0.1-0.2,0.2-0.3,0.4-0.3c0.1,0,0.1,0,0.2,0
			c0.3,0,0.6,0.3,0.7,0.7l0.1,0.4c0.1,0.2,0,0.4-0.1,0.5c-0.1,0.2-0.2,0.3-0.4,0.3c-0.1,0-0.1,0-0.2,0C11.2,50.7,11,50.5,10.9,50.2z
			 M11.6,41.8c0.1,0.5,0.1,0.9,0.2,1.3c-0.6,0.2-2.4,1-3,4.2c-0.4-0.2-0.8-0.2-1.2-0.2c-0.3,0-0.5,0-0.8,0.1c0,0,0-0.1,0-0.1
			C7.8,43.4,10.8,42.1,11.6,41.8z M2.2,41c-0.2,0.1-0.5,0.2-0.8,0.2c-0.6,0-1.2-0.2-1.4-0.7c0,0-0.1-0.2-0.1-0.2
			c-0.2-0.6-0.6-2.6-0.7-4.1l1.4,2.6c-0.1,0.2-0.2,0.3-0.2,0.5c0,0.5,0.4,1,0.9,1c0.5,0,1.1-0.4,1-1c-0.1-0.6-0.3-0.8-0.9-0.8
			c0,0-0.3,0-0.3,0L-0.5,36c1,0.7,2.4,1.9,3,2.4c0.2,0.2,0.4,0.4,0.4,0.5c0.2,0.4,0.2,0.8,0,1.2C2.8,40.5,2.6,40.8,2.2,41z
			 M3.2,43.6c-0.8-1.7-0.8-2.1-0.7-2.2c0,0,0,0,0,0c0.6,0,2.3,2.7,3.9,5.5c0,0.1-0.1,0.4-0.1,0.5c-0.3,0.1-0.5,0.2-0.7,0.4
			C4.7,46.1,3.8,44.7,3.2,43.6z M9.2,53.9C9,53.9,8.8,54,8.8,54c-0.2,0.1-0.5,0.1-0.7,0.1c-1.1,0-2.3-0.8-2.6-1.8l-0.4-1.1
			c-0.3-0.9,0-2,0.5-2.7c0,0,0.1-0.1,0.3-0.3c0.3-0.2,0.6-0.4,0.9-0.6l0.4-0.1c0.2-0.1,0.4-0.1,0.6-0.1c1.1,0,2.1,0.7,2.5,1.8
			l0.4,1.3c0.3,0.9,0.1,1.9-0.4,2.5c-0.1,0.1-0.3,0.3-0.3,0.3C9.7,53.6,9.5,53.8,9.2,53.9C9.2,53.9,9.2,53.9,9.2,53.9z M12.1,58
			c-0.4-0.4-1.5-1.6-2.8-3.7c0.3-0.1,0.7-0.3,0.9-0.5c0.4,0.7,0.7,1.3,0.9,1.8c0,0.3,0.1,0.4,0.2,0.6l0,0l0.1,0
			C11.7,57,12,57.7,12.1,58z M16.6,71.6c-0.2,0-0.4-0.1-0.6-0.1c0-0.1-0.1-0.2-0.1-0.3C16.1,71.3,16.4,71.4,16.6,71.6z M17.1,72
			l0.5,0.6c1.1,1.2,1.6,2.1,1.6,2.2l0,0l0,0.1c-2.2,0.3-4.3,0.4-6.1,0.5c0.7-1.5,0.9-2.9,0.8-3.9C14.6,71.5,16.2,71.5,17.1,72z
			 M15.3,70.7c0.1,0.1,0.2,0.3,0.3,0.6c-0.2,0-0.5-0.1-0.7-0.1c0-0.4-0.2-0.8-0.3-1.1C14.8,70.4,15.1,70.6,15.3,70.7z M13.7,69.7
			c0.1,0,0.2,0.1,0.2,0.1c0.1,0.2,0.5,0.9,0.6,1.4c-0.3,0-0.5,0-0.6,0c-0.1-0.8-0.3-1.3-0.6-1.8C13.5,69.6,13.6,69.6,13.7,69.7z
			 M5.3,71.7c0-1.7,1.1-2.8,2.8-3.4c0,0,0.1,0,0.1,0l0,0c0.1,0,0.3-0.1,0.4-0.1C9,68.1,9.3,68,9.7,68c0.1,0,0.2,0,0.3,0
			c0.9,0,1.7,0.4,2.6,1c1.2,2,1.6,2.4-0.3,6.4c-3.6,0.1-5.7-0.3-6.7-0.4l-0.2-0.8c0-0.1,0-0.1,0-0.2c0-0.2-0.1-0.4-0.1-0.7l0-0.3
			l0,0C5.3,72.7,5.3,71.9,5.3,71.7z M19.6,75.9C19.5,76,19.1,76,18,76c-0.4,0-0.8,0-1.1,0c-0.2,0-0.3,0-0.4,0L6.1,76.3
			c-0.5,0-0.9-0.2-0.9-0.4l0-0.7l0.3,0c0.8,0.1,3.2,0.5,6.6,0.5c2.1,0,4.6-0.1,7.3-0.5l0.3,0L19.6,75.9z M20.2,71.8
			c0,0.9-0.8,1.6-1.1,2.1c-0.4-0.6-1-1.4-1.6-2.1l0,0c-0.2-0.1-0.3-0.2-0.5-0.3c-0.1-0.1-0.2-0.1-0.2-0.2c0.5-2.1,1.1-11,1.3-12.7
			l1.7,0.6c-0.1,1.6,0.1,6,0.3,9.2C20.2,70,20.2,71.4,20.2,71.8z M23.6,54.8l-4.8,0.5v-0.8l4.8-0.4V54.8z M23.6,53.6l-3.3,0.2V53
			h3.3V53.6z M23.6,52.7l-3.3-0.2v-0.7h3.3V52.7z M23.6,51.5h-3.3v-0.7l3.3-0.2V51.5z M23.6,50.4l-3.7,0l0-1.7l0.7,0.1l0,0l3,0.3
			V50.4z M23.6,48.9L21,48.5l0.1-0.5l2.5,0.1V48.9z M23.6,47.8l-0.8-0.1l0.8-0.1V47.8z M23.6,47.3l-2.8,0.2l0,0l0,0l-1,0.1l0.1-0.5
			l3.7-0.4V47.3z M23.6,45.9h-4.8v-1.2l4.8,0.3V45.9z M23.6,44.8l-5.1-0.5l0.2,1.9h5v0.2l-4,0.4L19.5,48l1.2-0.1l-0.1,0.5l-1.1-0.2
			l0.1,2.4l0.4,0v0.8v0.3v0.7V53v1h0.1l-1.6,0.2l-0.1,1.5l5.2-0.7v3l-1.5,1.8l-10.5-4c-0.1-0.1-0.1-0.2-0.2-0.4c0,0,0,0,0-0.1
			c0-0.8,0.6-2.7,3.3-8.1c0.2-0.4,0.5-0.9,0.7-1.3c0.2,0.3,0.4,0.4,0.8,0.5c0.1,0,0.2,0,0.3,0c0.7,0,1.3-0.5,1.4-1.1l1-5.1
			c0-0.1,0-0.1,0-0.2l3.3,3.4l1.5-2.7L23.6,44.8z M19,39.7c1.5,0.5,3,0.7,4.6,0.8L22.1,43L19,39.7z M42.4,75.3l0,0.7
			c0,0.1-0.4,0.4-0.9,0.4L31,76c-0.1,0-0.2,0-0.4,0c-0.3,0-0.7,0-1.1,0c-1.1,0-1.4-0.1-1.5-0.1l0-0.7l0.3,0c2.7,0.4,5.2,0.5,7.3,0.5
			c3.4,0,5.7-0.3,6.6-0.5L42.4,75.3z M34.9,69c0.9-0.6,1.7-1,2.6-1c0.5,0,0.9,0,1.4,0.1c0.1,0,0.3,0.1,0.4,0.1c0,0,0.1,0,0.1,0
			c1.7,0.7,2.8,2.2,2.8,4c0,0.2,0,0.5,0,0.7l0,0l0,0.3c0,0.2-0.1,0.5-0.1,0.7c0,0.1,0,0.1,0,0.2L41.9,75c-1,0.2-3.1,0.6-6.7,0.5
			C33.3,71.5,33.9,71,34.9,69z M33.6,69.8c0.1,0,0.2-0.1,0.2-0.1c0.1-0.1,0.2-0.1,0.3-0.2c-0.2,0.4-0.5,1-0.6,1.8
			c-0.1,0-0.4,0-0.6,0C33,70.7,33.5,70,33.6,69.8z M32.2,70.7c0.2-0.2,0.5-0.3,0.8-0.5c-0.2,0.3-0.3,0.7-0.3,1.1
			c-0.2,0-0.4,0-0.7,0.1C32,71,32.1,70.8,32.2,70.7z M33.5,71.6c-0.1,1,0.2,2.4,0.9,4c-1.8,0-3.9-0.4-6.2-0.7l0-0.1l0,0
			c0,0,0.9-1.3,2-2.6l0,0C31.2,71.7,32.9,71.6,33.5,71.6z M31.6,71.1c0,0.1-0.1,0.2-0.1,0.3c-0.2,0-0.4,0.1-0.6,0.1
			C31.2,71.4,31.4,71.3,31.6,71.1z M30.7,71.2c-0.1,0.1-0.2,0.1-0.2,0.2c-0.2,0.1-0.3,0.2-0.5,0.3l0,0c-0.6,0.7-1.2,1.3-1.6,1.9
			c-0.3-0.5-1.1-1.1-1.1-1.9c0-0.4,0.1-1.8,0.1-3.4c0.1-3.2,0.2-7.4,0.1-9.1l1.9-0.7C29.6,60.3,30.2,69.2,30.7,71.2z M35.7,55.9
			l-9.9,3.8L24.3,58v-2.6h3.1v-1.3h-3.1v-0.2h3.1v-1.3h-2.4l2.9-0.4l0-1.3l-0.1,0v-0.7v-0.4v-1h-3.6v-1.5l4.6,0.8l-0.3-1.6L25,45.7
			h2.9v-1.4h-3.6l-0.2-3.4l1.6,2.7l3-3.2c0,0,0,0,0,0l1,5.1c0.1,0.6,0.7,1.1,1.4,1.1c0.1,0,0.2,0,0.3,0c0.3-0.1,0.4-0.1,0.6-0.2
			C34.1,50.8,36,55.2,35.7,55.9z M24.3,55.1v-0.6l2.9-0.2l-0.2,0.7H24.3z M27.5,50.2v0.7l-3.2-0.1v-0.6H27.5z M24.3,49.8v-0.7l3.2,0
			v0.8H24.3z M26.3,51.2l-2,0.3v-0.3H26.3z M27.6,51.2l0,0.7l-3.3,0.5v-0.5L27.6,51.2z M24.3,53.6V53h2.8v0.8L24.3,53.6z M24.3,47
			v-1.3l4,1.1l0.2,0.9L24.3,47z M24.3,45.5v-0.8h3.2v0.7L24.3,45.5z M24.3,40.5c1.5,0,3-0.2,4.4-0.6l-3,3.3L24.3,40.5z M42.7,52.2
			c0,1.3-1.2,2.4-2.7,2.4h-0.1c-1.2,0-2.1-0.7-2.5-1.6h2.3v-0.4h-2.5c0-0.1,0-0.3,0-0.5v-0.8h2.5V51h-2.5v-1c0-0.1,0-0.1,0-0.2h2.5
			v-0.4h-2.4c0.3-1.1,1.3-1.9,2.6-1.9H40c0.1,0,0.2,0,0.2,0v0c0.4,0,1.5,0.2,2.1,1.3c0,0,0,0,0,0c0,0,0,0,0,0
			c0.1,0.1,0.1,0.2,0.2,0.3c0,0,0,0,0,0c0,0,0,0,0,0.1c0.1,0.2,0.1,0.5,0.1,0.7V52.2z M40.6,47c0-0.3,0.1-0.5,0.2-0.7
			c0,0,0-0.1,0-0.1c0,0,0,0,0,0c0.1-0.1,0.1-0.2,0.3-0.3c0,0,0,0,0,0c0.2-0.1,0.4-0.2,0.6-0.2c0.6,0,1.1,0.6,1.1,1.3v0.9
			c0,0.2,0,0.4-0.1,0.6c-0.2-0.3-0.5-0.6-0.8-0.8l-0.4-0.2c-0.2-0.1-0.5-0.2-0.8-0.2V47z M40.2,47v0.2c-0.1,0-0.2,0-0.2,0h-0.1
			c-0.5,0-0.9,0.1-1.3,0.3l-0.3-0.9c0.3-0.2,1.1-0.8,2.2-0.5C40.3,46.3,40.2,46.6,40.2,47z M40.4,45.6c-0.8-0.2-1.4,0.1-1.8,0.3
			c-0.8-2.1-2.2-2.7-2.6-2.8c0.1-0.4,0.1-0.9,0.2-1.3C36.7,42,39.1,43,40.4,45.6z M35.9,39C35.9,39,36,39,35.9,39
			c-0.1,2.3-0.5,4.9-0.6,5.6l-2.8-0.4l-0.8-4.3C31.9,39.7,32.6,39,35.9,39z M31.4,39.9l1,5.1c0,0.2,0,0.4-0.1,0.6c0,0,0,0,0,0
			c-0.1,0.3-0.2,0.3-0.2,0.3c-0.2,0.1-0.4,0.3-0.6,0.3c-0.1,0-0.2,0-0.2,0c-0.5,0-1-0.3-1.1-0.8l-1-5.1c0-0.1,0-0.2,0-0.4l0.1-0.1
			c0-0.1,0.1-0.2,0.3-0.2c0.4-0.1,0.8-0.3,1.2-0.5C31.1,39.3,31.3,39.5,31.4,39.9z M31,38.8c-0.1,0-1.8,0.6-1.8,0.7
			c-1.5,0.5-3.4,0.7-5.1,0.7c-2,0-5.2-0.6-5.8-0.9c-0.6-0.3-1-0.5-1.1-0.5c-4.4-2-7.2-6-7.3-10.5c1.3,1.7,3.4,2.8,5.8,2.8
			c1.1,0,2.3-0.3,3.2-0.7c0.2,0.4,0.5,1.1,0.9,1.5c1,1,2.3,1.6,4.4,1.6c2,0,3.5-0.7,4.5-1.7c1.2-1.3,0.9-2.9,0.9-2.9l-0.1,0.1
			c0,0,0.1,1.5-1,2.6C27.4,32.5,26,33,24,33c-1.9,0-3.4-0.5-4.3-1.5c-0.4-0.4-0.6-0.8-0.7-1.2c2.3-1.2,3.9-3.7,3.9-6.5
			c0-4-3.3-7.3-7.3-7.3c-0.4,0-0.8,0-1.2,0.1c0.7-0.8,1.5-1.5,2.4-2.2c2.4-1.8,5-2.7,8-2.7c2.7,0,4.7,0.8,5.2,1c0,0.2-0.1,0.6,0,0.9
			c0.1,0.5,2.8,1.7,3.6,1.7c0,0,0.1,0,0.1,0l0.1,0l0,0c0.2-0.2,0.4-0.6,0.5-0.8c2.5,3.5,3.9,7.8,4,11.9l0,0.3
			c0.1,0.5,0.1,0.9,0.1,1.4C38.4,32.8,35.6,36.8,31,38.8z M38.6,32.6L38.6,32.6C38.6,32.6,38.6,32.6,38.6,32.6
			C38.6,32.6,38.6,32.6,38.6,32.6z M44.7,29.5c0,2-1.8,3.7-3.9,3.7c-0.8,0-1.5-0.2-2.1-0.6c0.2-0.6,1.6-3.7,3.9-3.7l0-0.2
			c-2.4,0-3.9,2.7-4.2,3.7c-0.1-0.1-0.2-0.3-0.3-0.5c0.5-1.2,0.7-2.5,0.7-3.8c0-0.5,0-1.1-0.1-1.6c0.3-0.2,0.7-0.4,0.7-0.4
			c0.5-0.2,1-0.3,1.5-0.3C43,25.9,44.7,27.5,44.7,29.5z M43.3,17L43,17.2c-0.4-0.6-2.1-3.3-3.5-4.4l-0.1,0.1
			c1.4,1.2,3.1,4.4,3.3,4.7l0.2,0.7l-0.2,0.1c-0.4-0.7-1.8-3.1-2.5-3.8l-0.1,0c0.6,0.9,2.1,3.8,2.3,4.1l0,0.3c0,0,0,1-0.6,3.1
			c-0.5,1.8-1,3.1-1.1,3.4c0,0,0,0,0,0c-0.5,0-1,0.1-1.5,0.2c0-1-0.1-4.5-1.7-7.5c-1-1.8-2.3-4-3.2-4.7c0,0-0.9-0.2-2.1,0.1
			c0.1-0.2,0.4-0.7,0.6-1.1l0,0c0.4-1,0.5-1.6,1.8-2.1c0.9-0.3,2-0.1,3.2,0.7C41.5,13.4,43,16.4,43.3,17z M44.1,13.4
			c-1.1,0.3-1.9,0.8-2,0.9c-0.9-1.2-2-2.3-3.9-3.5c-1.3-0.8-2.5-1.1-3.5-0.7c-0.1,0-0.3,0.1-0.5,0.2c-0.3,0.1-0.5,0.2-0.6,0.3
			c0.5-0.5,1.2-0.9,2-1.2C36.3,9.2,37.1,9,37.9,9c2.3-0.2,4.8,1.4,7.4,3.1c0.3,0.2,1,0.7,1.2,0.9C45.6,13,44.8,13.2,44.1,13.4z"/>
		
			<linearGradient id="SVGID_00000081617244185998274560000013932442874365140897_" gradientUnits="userSpaceOnUse" x1="17.0351" y1="-0.9475" x2="15.7184" y2="76.1403">
			<stop  offset="0" style="stop-color:#7B7E76"/>
			<stop  offset="1" style="stop-color:#2F3B35"/>
		</linearGradient>
		<path style="fill:url(#SVGID_00000081617244185998274560000013932442874365140897_);" d="M17,9.3c-0.1,0-0.1,0-0.2,0.1
			C16.8,9.3,16.9,9.3,17,9.3L17,9.3z"/>
		<path class="st71" d="M32.7,52.1L32.7,52.1L32.7,52.1c-0.1,0-0.3,0-0.3-0.1c-0.1-0.1-0.1-0.2-0.2-0.3l-0.1-0.4l0,0
			c0,0-0.2,0-0.4,0.2c-0.2,0.2-0.4,0.4-0.8,0.7l0,0l0,0c-0.4-0.2-0.7-0.3-1-0.3c-0.3-0.1-0.5,0-0.5,0l0,0l0.1,0.4c0,0.1,0,0.3,0,0.4
			c0,0.1-0.1,0.2-0.2,0.2l0,0l0,0c0,0,0,0,0.6,2.5l0,0c0,0,1.2-0.3,1.2-0.3c0,0,0,0,0,0c0,0,0,0,0.1,0.1c0.1,0,0.2,0.1,0.5,0
			c0,0,0,0,0,0c0,0,0,0,0,0c0.2-0.1,0.3-0.1,0.4-0.2c0,0,0-0.1,0-0.1c0,0,0,0,0,0c0,0,1.2-0.3,1.2-0.3l0,0
			C32.7,52.1,32.7,52.1,32.7,52.1z M32.5,54.1c-0.2,0.2-0.5,0.4-0.6,0.5c0,0-0.1,0.1-0.1,0c0,0,0-0.1,0.1-0.2c0,0,0.1-0.1,0.2-0.2
			c0.1-0.1,0.1-0.1,0.2-0.2l0,0L32.1,53l0,0c0,0-0.1,0.1-0.1,0.2c0,0,0,0.1,0,0.3c0,0.1,0,0.2,0,0.2c0,0-0.2,0.1-0.3,0.2
			c0,0,0,0,0,0c0,0-0.2-0.8-0.2-0.9c0,0,0.1-0.2,0.2-0.3c0.1-0.2,0.2-0.3,0.2-0.3l-0.1-0.3c0,0-0.2,0.1-0.4,0.3
			c-0.1,0.1-0.4,0.4-0.4,0.4s0.4,1.9,0.4,1.9c0,0.1,0,0.1-0.1,0.1c0,0,0,0,0,0c0,0-0.1,0-0.1-0.1c0,0-0.4-1.9-0.4-1.9
			s-0.4-0.1-0.5-0.2c-0.2-0.1-0.5-0.1-0.5-0.1l0.1,0.3c0,0,0.2,0.1,0.3,0.2c0.2,0.1,0.3,0.2,0.3,0.2c0,0,0.2,0.9,0.2,0.9
			c0,0,0,0,0,0c-0.1,0-0.3,0-0.3,0c0,0,0-0.1-0.1-0.2c0-0.2-0.1-0.3-0.1-0.3c0,0-0.2-0.1-0.2-0.1l0,0l0.2,0.9l0,0
			c0.1,0,0.1,0.1,0.2,0.1c0.1,0,0.2,0.1,0.2,0.1c0.2,0.1,0.2,0.1,0.2,0.1c0,0,0,0-0.1,0c-0.2,0-0.5-0.1-0.7-0.1c0,0,0,0-0.1,0
			c0,0-0.6-2.4-0.6-2.4c0,0,0,0,0,0c0,0,0,0,0.1,0c0.7,0.1,1.1,0.3,1.3,0.4l0,0l0,0c0.1-0.2,0.4-0.6,1-1c0,0,0,0,0.1,0c0,0,0,0,0,0
			C32,51.6,32.6,54,32.5,54.1C32.6,54.1,32.5,54.1,32.5,54.1z M33.4,52.6c-0.2-0.7-0.3-1-0.5-1.2c-0.3-0.3-0.5-0.5-0.9-0.5
			c-0.4,0-1,0.1-1.4,0.2c-0.5,0.1-1,0.3-1.4,0.5c-0.4,0.2-0.5,0.4-0.6,0.9c-0.1,0.3,0,0.6,0.1,1.3c0.2,0.9,0.4,1.5,0.6,1.8
			c0.2,0.3,0.6,0.5,1.1,0.5c0,0,0.6,0,1.3-0.2c0.7-0.2,1.2-0.4,1.2-0.4c0.4-0.2,0.7-0.5,0.7-0.9C33.7,54.1,33.7,53.5,33.4,52.6z
			 M33.6,54.4c0,0.4-0.3,0.7-0.7,0.9c0,0-0.5,0.2-1.2,0.4c-0.7,0.2-1.2,0.2-1.2,0.2c-0.4,0-0.8-0.2-1-0.5c-0.2-0.3-0.4-0.8-0.6-1.7
			c-0.1-0.6-0.2-1-0.1-1.2c0.1-0.4,0.2-0.6,0.6-0.8c0.3-0.2,0.9-0.3,1.3-0.4c0.4-0.1,1-0.2,1.4-0.2c0.4,0,0.6,0.1,0.9,0.5
			c0.2,0.2,0.3,0.5,0.4,1.2C33.5,53.5,33.6,54.1,33.6,54.4z"/>
	</g>
</g>
</svg>
