<!-- <?xml version="1.0" encoding="utf-8"?> -->
<!-- Generator: Adobe Illustrator 26.1.0, SVG Export Plug-In . SVG Version: 6.00 Build 0)  -->
<!-- <svg version="1.1" id="圖層_1" xmlns="http://www.w3.org/2000/svg" xmlns:xlink="http://www.w3.org/1999/xlink" x="0px" y="0px"
	 viewBox="0 0 20 20" style="enable-background:new 0 0 20 20;" xml:space="preserve"> -->
<svg width="20" height="20" viewBox="0 0 20 20" fill="none" xmlns="http://www.w3.org/2000/svg">
	<style type="text/css"> .st0{ fill:#7895AC; } </style>
	<g>
		<g>
			<path class="st0" d="M10,17.5c-4.1,0-7.5-3.3-7.5-7.5S5.9,2.5,10,2.5s7.5,3.4,7.5,7.5S14.2,17.5,10,17.5z M10,3.7
				c-3.4,0-6.3,2.9-6.3,6.3s2.9,6.3,6.3,6.3s6.3-2.9,6.3-6.3S13.4,3.7,10,3.7z"/>
		</g>
		<circle class="st0" cx="7.4" cy="8.2" r="0.9"/>
		<circle class="st0" cx="12.6" cy="8.2" r="0.9"/>
		<g>
			<path class="st0" d="M10,13.3c-1.5,0-2.4-1.1-2.8-1.8c-0.2-0.3,0-0.6,0.3-0.9c0.3-0.2,0.6,0,0.9,0.3C8.6,11.3,9,12,10,12
				c0.9,0,1.5-0.9,1.6-1.1c0.2-0.3,0.5-0.3,0.9-0.3c0.3,0.2,0.4,0.5,0.3,0.9C12.4,12.2,11.5,13.3,10,13.3z"/>
		</g>
	</g>
</svg>
