<svg width="40" height="40" viewBox="0 0 40 40" fill="none" xmlns="http://www.w3.org/2000/svg">
<path d="M40 20C40 33.8071 33.8071 40 20 40C6.19288 40 0 33.8071 0 20C0 6.19288 6.19288 0 20 0C33.8071 0 40 6.19288 40 20Z" fill="#7895AC"/>
<path d="M15.1111 23.3949C15.2302 23.3495 15.2529 23.3268 15.2529 23.1112C15.2529 22.8956 15.0146 22.9467 14.5891 22.4758C13.9165 21.718 13.531 20.7482 13.4998 19.7354C13.3807 18.249 14.7083 16.6604 14.9409 16.2349C15.1735 15.8094 14.9409 15.2817 14.6345 15.2874C11.0432 15.4065 10.6631 18.4078 10.5893 19.1397C10.5155 19.8716 10.5439 21.9311 11.8885 22.8502C12.8537 23.4368 14.0068 23.6317 15.1111 23.3949ZM25.7773 15.7186C25.8511 15.7186 25.8965 15.6221 25.8965 15.4803C25.6202 15.1294 25.2534 14.8606 24.8355 14.703C24.8031 14.7206 24.7747 14.7446 24.752 14.7737C24.7294 14.8028 24.713 14.8362 24.704 14.872C24.6949 14.9077 24.6933 14.9449 24.6994 14.9812C24.7054 15.0176 24.7189 15.0523 24.7391 15.0832C25.065 15.3233 25.4104 15.5359 25.7716 15.7186H25.7773ZM25 17.4944C25.0965 17.5398 26.9858 18.4873 27.0595 18.4873C27.1333 18.4873 27.1333 18.3454 27.1333 18.2036C26.4798 17.73 25.7734 17.3339 25.0284 17.0235C24.8979 17.0405 24.8979 17.4433 24.9944 17.4887L25 17.4944ZM25 19.1C25.1192 19.2192 27.173 20.3992 27.2694 20.4219C27.3659 20.4446 27.3148 20.2347 27.3148 20.0929C26.6388 19.5499 25.911 19.0748 25.1419 18.6745C25.0624 18.6745 24.8752 18.9809 24.9944 19.1H25ZM25.0454 20.4219C25.0454 20.4219 24.8582 20.751 24.8809 20.8701C25.591 21.3578 26.3257 21.8085 27.0822 22.2204C27.0822 22.2204 27.2467 22.0332 27.2241 21.9141C26.5484 21.344 25.8165 20.844 25.0398 20.4219H25.0454ZM26.8439 24.2062C26.9404 24.2516 26.9631 24.0416 27.0085 23.9452C27.0538 23.8487 24.4554 22.124 24.4554 22.124C24.4554 22.124 24.1944 22.4304 24.1944 22.5268C24.1944 22.6233 26.7418 24.1551 26.8383 24.2062H26.8439ZM25.9475 25.6019C26.0435 25.5439 26.1313 25.4733 26.2085 25.3919C25.5067 24.7129 24.7474 24.096 23.9391 23.548C23.7972 23.548 23.6327 23.7126 23.6554 23.8317C23.6781 23.9509 25.9362 25.6019 25.9362 25.6019H25.9475ZM23.0313 24.6998C22.9054 24.772 22.812 24.8898 22.7703 25.0288C23.3837 25.5596 24.0319 26.0486 24.7107 26.4926C24.8067 26.4347 24.8945 26.3641 24.9717 26.2827C24.3915 25.6783 23.7399 25.1468 23.0313 24.6998ZM33.1983 9.88054C33.1983 9.88054 34.1911 7.73028 32.7955 7.28207C31.3998 6.83386 30.5714 7.75297 30.6225 8.74584C30.6736 9.7387 31.9728 10.1642 31.9728 10.1642C31.9728 10.1642 32.3019 17.2561 32.3019 17.3526C31.8946 17.415 31.4815 17.4302 31.0707 17.398C31.0707 17.398 31.0707 16.7852 31.0253 16.2632C30.9799 15.7413 30.2027 15.5768 30.2027 15.5768C30.2027 15.5768 29.5389 11.8663 28.4041 10.6805C27.2694 9.49474 25.3234 6.80549 20.6882 6.52182C16.0529 6.23814 13.8799 6.99272 10.7141 9.31319C7.54829 11.6337 7.04902 16.0193 7.04902 16.0193C6.8391 16.0193 6.22069 16.0647 6.05616 16.3484C5.89162 16.632 6.12991 20.2007 6.24338 20.5354C6.35685 20.8701 7.8036 21.2219 7.8036 21.2219C7.96265 21.784 8.15205 22.337 8.37095 22.8786C8.75108 23.826 9.38651 25.148 9.38651 25.148C9.38651 25.148 8.10997 27.8202 8.25181 28.172C8.39365 28.5237 10.073 30.4414 12.5069 31.8597C14.9409 33.2781 19.4116 34.271 23.2866 32.8299C27.1616 31.3888 30.4977 28.2911 30.5204 28.0812C30.5431 27.8713 29.102 24.2062 29.102 24.2062C29.3851 23.8375 29.5793 23.4084 29.6693 22.9523C29.8308 22.3106 29.9109 21.651 29.9076 20.9893C29.9076 20.9893 30.8551 20.8021 31.0423 20.4957C31.1693 19.9378 31.2095 19.3637 31.1615 18.7936C31.1615 18.7936 33.221 18.9582 33.4309 18.9128C33.6408 18.8674 33.9528 18.7709 33.9982 18.4419C34.0436 18.1128 33.1983 9.88054 33.1983 9.88054ZM7.90005 20.3539C7.68754 20.4158 7.45917 20.3913 7.26462 20.2858C7.19653 20.1893 6.8618 17.0689 7.02633 16.927C7.02633 16.927 7.90005 16.8306 7.92274 17.0008C7.98632 18.1178 7.97874 19.2378 7.90005 20.3539ZM8.87022 21.273C8.87022 21.1084 8.87022 17.2277 8.87022 17.1824C10.3709 15.7323 12.0666 14.4987 13.9083 13.5173C16.2742 12.3826 19.3435 12.3372 21.4711 12.6889C23.5987 13.0407 25.488 14.4364 26.8156 15.3612C28.1432 16.2859 28.2566 16.615 28.2566 16.615C28.2473 17.8463 28.3022 19.0772 28.4212 20.3028C28.5345 20.5117 28.6779 20.7028 28.8467 20.8701C28.6707 21.7618 28.3628 22.6223 27.9332 23.4232C27.4031 24.5029 26.6646 25.467 25.7603 26.26C25.1699 26.6738 24.5498 27.0436 23.905 27.3663C23.905 27.3663 22.2994 25.8061 22.203 25.7834C22.1065 25.7607 21.7321 26.0444 21.8002 26.1862C21.8683 26.3281 23.576 27.5592 23.4341 27.65C21.886 28.2824 20.2377 28.634 18.5663 28.6883C16.0853 28.6431 13.7001 27.7228 11.8318 26.0898C10.5195 24.7083 9.51071 23.0675 8.87022 21.273ZM11.3779 29.6357C11.3098 29.6357 11.0262 29.5903 11.0942 29.4939C11.1623 29.3974 11.9907 27.7918 12.0871 27.6954C12.1836 27.5989 12.3708 27.7691 12.3254 27.8372C12.28 27.9053 11.446 29.6641 11.3779 29.6641V29.6357ZM12.019 30.2031C11.9226 30.1577 11.758 30.1066 11.758 30.0386C11.758 29.9705 12.6545 28.1947 12.6545 28.1947L12.8927 28.3365C12.6493 28.99 12.3552 29.6236 12.0134 30.2315L12.019 30.2031ZM29.2949 27.8429C29.2222 27.9367 29.1339 28.0173 29.0339 28.0812C28.739 27.5034 28.3994 26.9495 28.0183 26.4245C27.8992 26.4245 27.6382 26.8273 27.6382 26.8273C27.6382 26.8273 28.5857 28.223 28.4893 28.3649C28.2879 28.5355 28.0646 28.6786 27.8254 28.7904C27.6002 28.3086 27.3305 27.849 27.0198 27.4174C26.878 27.372 26.4978 27.6557 26.5489 27.7748C26.6 27.894 27.4226 29.1705 27.4226 29.1705C27.4226 29.1705 26.9517 29.596 26.8553 29.5506C26.7588 29.5052 26.1688 28.3195 26.078 28.3195C25.9872 28.3195 25.6979 28.6485 25.6979 28.6485C25.6979 28.6485 26.5716 29.7832 26.4808 29.8797L26.0553 30.2088L25.2497 29.006C25.2497 29.006 24.8979 29.1478 24.8979 29.2443C24.8979 29.3407 25.7262 30.5946 25.6809 30.6626C25.6355 30.7307 24.2852 31.7973 21.2839 32.1548C18.2826 32.5122 16.3933 32.2285 14.7366 31.6839C13.08 31.1392 12.4672 30.6229 12.4218 30.5492C12.6077 29.8531 12.8863 29.1852 13.2502 28.5634C14.6368 29.2983 16.1748 29.7022 17.7436 29.7435C20.4839 29.8627 21.4541 29.8173 23.8653 28.6088C25.2384 27.9869 26.4877 27.122 27.5531 26.0557C27.8087 25.7964 28.0858 25.5591 28.3815 25.3465C28.3815 25.3465 29.3403 27.7521 29.2949 27.8429ZM30.0778 19.8319C29.9871 19.8877 29.8853 19.9232 29.7796 19.9359C29.6738 19.9487 29.5665 19.9383 29.4651 19.9056C29.4197 19.8376 29.4197 16.337 29.4651 16.3143C29.5105 16.2916 30.0778 16.3881 30.1062 16.5299C30.1673 17.63 30.1579 18.733 30.0778 19.8319ZM33.3685 18.1298C32.6917 18.2599 31.999 18.2848 31.3147 18.2036C31.2182 18.1355 31.3147 17.8745 31.3147 17.8745C31.3147 17.8745 32.8976 17.8745 32.8976 17.7327C32.8976 17.5909 32.6139 12.9556 32.7557 12.8421C32.8976 12.7286 32.9203 12.8875 32.994 13.0293C33.2107 14.7214 33.3338 16.4242 33.3628 18.1298H33.3685Z" fill="white"/>
</svg>
