<?xml version="1.0" encoding="utf-8"?>
<!-- Generator: Adobe Illustrator 28.0.0, SVG Export Plug-In . SVG Version: 6.00 Build 0)  -->
<svg version="1.1" id="圖層_1" xmlns="http://www.w3.org/2000/svg" xmlns:xlink="http://www.w3.org/1999/xlink" x="0px" y="0px"
	 viewBox="0 0 47.2 47.3" style="enable-background:new 0 0 47.2 47.3;" xml:space="preserve">
<style type="text/css">
	.st0{fill:#123669;}
</style>
<path class="st0" d="M43.9,0c0.3,0,0.7,0,1,0c2.1,0.6,2.6,2.4,2,4.1c-4.4,13.5-8.7,27-13,40.6c-0.4,1.3-1,2.2-2.4,2.6
	c-0.3,0-0.7,0-1,0c-1.2-0.4-1.9-1.2-2.3-2.4c-1.7-5.2-3.4-10.3-5.1-15.5c-0.1-0.3-0.1-0.6,0.1-0.8c3.4-4.8,6.7-9.6,10.1-14.4
	c0.1-0.1,0.2-0.3,0.3-0.4c-0.2,0-0.3,0.1-0.4,0.2c-4.9,3.4-9.7,6.8-14.6,10.1c-0.3,0.2-0.5,0.2-0.8,0.1c-5.1-1.7-10.1-3.4-15.2-5.1
	C1.3,18.7,0.4,18,0,16.7c0-0.3,0-0.7,0-1c0.4-1.2,1.1-1.9,2.3-2.3c3.3-1,6.5-2.1,9.8-3.1c9.2-3,18.5-6,27.7-8.9
	C41.2,0.9,42.5,0.5,43.9,0z"/>
</svg>
