<svg width="82" height="82" viewBox="0 0 82 82" fill="none" xmlns="http://www.w3.org/2000/svg">
<path d="M82 41C82 69.3046 69.3046 82 41 82C12.6954 82 0 69.3046 0 41C0 12.6954 12.6954 0 41 0C69.3046 0 82 12.6954 82 41Z" fill="url(#paint0_linear_1952_1164)"/>
<path d="M53.0825 30.4162C52.3844 29.6954 51.5555 29.1237 50.6432 28.7337C49.7309 28.3436 48.753 28.1428 47.7655 28.1428C46.778 28.1428 45.8001 28.3436 44.8878 28.7337C43.9755 29.1237 43.1466 29.6954 42.4484 30.4162L40.9996 31.9112L39.5507 30.4162C38.1406 28.961 36.228 28.1436 34.2337 28.1436C32.2394 28.1436 30.3268 28.961 28.9166 30.4162C27.5065 31.8713 26.7142 33.8448 26.7142 35.9026C26.7142 37.9605 27.5065 39.934 28.9166 41.3891L30.3655 42.8841L40.9996 53.8571L51.6337 42.8841L53.0825 41.3891C53.781 40.6687 54.3351 39.8134 54.7131 38.872C55.0911 37.9307 55.2857 36.9216 55.2857 35.9026C55.2857 34.8836 55.0911 33.8746 54.7131 32.9332C54.3351 31.9918 53.781 31.1365 53.0825 30.4162V30.4162Z" fill="white"/>
<defs>
<linearGradient id="paint0_linear_1952_1164" x1="0" y1="0" x2="98.6885" y2="46.8344" gradientUnits="userSpaceOnUse">
<stop offset="0.1875" stop-color="#688398"/>
<stop offset="1" stop-color="#7895AC" stop-opacity="0.6"/>
</linearGradient>
</defs>
</svg>
