<svg width="82" height="82" viewBox="0 0 82 82" fill="none" xmlns="http://www.w3.org/2000/svg">
<path d="M82 41C82 69.3046 69.3046 82 41 82C12.6954 82 0 69.3046 0 41C0 12.6954 12.6954 0 41 0C69.3046 0 82 12.6954 82 41Z" fill="url(#paint0_linear_1952_1108)"/>
<path fill-rule="evenodd" clip-rule="evenodd" d="M41 55.5C49.0081 55.5 55.5 49.0081 55.5 41C55.5 32.9919 49.0081 26.5 41 26.5C32.9919 26.5 26.5 32.9919 26.5 41C26.5 49.0081 32.9919 55.5 41 55.5ZM35.5625 39.1875C36.5635 39.1875 37.375 38.376 37.375 37.375C37.375 36.374 36.5635 35.5625 35.5625 35.5625C34.5615 35.5625 33.75 36.374 33.75 37.375C33.75 38.376 34.5615 39.1875 35.5625 39.1875ZM48.25 37.375C48.25 38.376 47.4385 39.1875 46.4375 39.1875C45.4365 39.1875 44.625 38.376 44.625 37.375C44.625 36.374 45.4365 35.5625 46.4375 35.5625C47.4385 35.5625 48.25 36.374 48.25 37.375ZM37.6412 43.1325C37.3175 42.485 36.5301 42.2225 35.8826 42.5463C35.235 42.87 34.9726 43.6574 35.2963 44.3049C35.6241 44.9604 36.2648 45.8654 37.186 46.6205C38.1181 47.3845 39.4091 48.0504 41 48.0504C42.591 48.0504 43.882 47.3845 44.8141 46.6205C45.7353 45.8654 46.376 44.9604 46.7037 44.3049C47.0275 43.6574 46.765 42.87 46.1175 42.5463C45.47 42.2225 44.6826 42.485 44.3588 43.1325C44.1831 43.4839 43.7665 44.0894 43.1521 44.593C42.5486 45.0876 41.8257 45.4287 41 45.4287C40.1743 45.4287 39.4514 45.0876 38.8479 44.593C38.2335 44.0894 37.8169 43.4839 37.6412 43.1325Z" fill="white"/>
<defs>
<linearGradient id="paint0_linear_1952_1108" x1="0" y1="0" x2="98.6885" y2="46.8344" gradientUnits="userSpaceOnUse">
<stop offset="0.1875" stop-color="#688398"/>
<stop offset="1" stop-color="#7895AC" stop-opacity="0.6"/>
</linearGradient>
</defs>
</svg>
