<?xml version="1.0" encoding="utf-8"?>
<!-- Generator: Adobe Illustrator 26.1.0, SVG Export Plug-In . SVG Version: 6.00 Build 0)  -->
<svg version="1.1" id="圖層_1" xmlns="http://www.w3.org/2000/svg" xmlns:xlink="http://www.w3.org/1999/xlink" x="0px" y="0px"
	 viewBox="0 0 20 20" style="enable-background:new 0 0 20 20;" xml:space="preserve">
<style type="text/css">
	.st0{fill:#7895AC;}
</style>
<g>
	<path class="st0" d="M10,17.6c-4.2,0-7.6-3.4-7.6-7.6S5.8,2.4,10,2.4s7.6,3.4,7.6,7.6S14.2,17.6,10,17.6z M10,3.6
		c-3.5,0-6.4,2.9-6.4,6.4s2.9,6.4,6.4,6.4s6.4-2.9,6.4-6.4S13.5,3.6,10,3.6z"/>
</g>
<circle class="st0" cx="7.4" cy="8.2" r="0.9"/>
<circle class="st0" cx="12.6" cy="8.2" r="0.9"/>
<g>
	<path class="st0" d="M12.2,13.4c-0.2,0-0.5-0.1-0.6-0.3c-0.2-0.3-0.7-1.1-1.6-1.1s-1.5,0.8-1.6,1.1c-0.2,0.3-0.5,0.4-0.8,0.3
		c-0.3-0.2-0.4-0.5-0.3-0.8c0.3-0.7,1.3-1.8,2.8-1.8s2.4,1.1,2.8,1.8c0.2,0.3,0,0.7-0.3,0.8C12.4,13.4,12.3,13.4,12.2,13.4z"/>
</g>
</svg>
