<?xml version="1.0" encoding="utf-8"?>
<!-- Generator: Adobe Illustrator 26.2.1, SVG Export Plug-In . SVG Version: 6.00 Build 0)  -->
<svg version="1.1" id="圖層_1" xmlns="http://www.w3.org/2000/svg" xmlns:xlink="http://www.w3.org/1999/xlink" x="0px" y="0px"
	 viewBox="0 0 82 82" style="enable-background:new 0 0 82 82;" xml:space="preserve">
<style type="text/css">
	.st0{fill:#FFFFFF;}
</style>
<path class="st0" d="M33.7,46.1c0.2-0.1,0.2-0.1,0.2-0.4c0-0.3-0.4-0.2-1-1c-1-1.1-1.6-2.6-1.6-4.1c-0.2-2.2,1.8-4.6,2.2-5.3
	c0.3-0.6,0-1.4-0.5-1.4c-5.4,0.2-6,4.7-6.1,5.8c-0.1,1.1-0.1,4.2,1.9,5.6C30.3,46.2,32,46.4,33.7,46.1z M49.7,34.6
	c0.1,0,0.2-0.1,0.2-0.4c-0.4-0.5-1-0.9-1.6-1.2c0,0-0.1,0.1-0.1,0.1s-0.1,0.1-0.1,0.1c0,0.1,0,0.1,0,0.2c0,0.1,0,0.1,0.1,0.2
	C48.6,34,49.1,34.3,49.7,34.6L49.7,34.6z M48.5,37.2c0.1,0.1,3,1.5,3.1,1.5s0.1-0.2,0.1-0.4c-1-0.7-2-1.3-3.2-1.8
	C48.3,36.6,48.3,37.2,48.5,37.2L48.5,37.2z M48.5,39.7c0.2,0.2,3.3,1.9,3.4,2c0.1,0,0.1-0.3,0.1-0.5c-1-0.8-2.1-1.5-3.3-2.1
	C48.6,39,48.3,39.5,48.5,39.7L48.5,39.7z M48.6,41.6c0,0-0.3,0.5-0.2,0.7c1.1,0.7,2.2,1.4,3.3,2c0,0,0.2-0.3,0.2-0.5
	C50.8,43,49.7,42.3,48.6,41.6L48.6,41.6z M51.3,47.3c0.1,0.1,0.2-0.2,0.2-0.4c0.1-0.1-3.8-2.7-3.8-2.7s-0.4,0.5-0.4,0.6
	C47.3,44.9,51.1,47.2,51.3,47.3L51.3,47.3z M49.9,49.4c0.1-0.1,0.3-0.2,0.4-0.3c-1.1-1-2.2-1.9-3.4-2.8c-0.2,0-0.5,0.2-0.4,0.4
	C46.5,46.9,49.9,49.4,49.9,49.4L49.9,49.4z M45.5,48c-0.2,0.1-0.3,0.3-0.4,0.5c0.9,0.8,1.9,1.5,2.9,2.2c0.1-0.1,0.3-0.2,0.4-0.3
	C47.6,49.5,46.6,48.7,45.5,48z M60.8,25.8c0,0,1.5-3.2-0.6-3.9c-2.1-0.7-3.3,0.7-3.3,2.2c0.1,1.5,2,2.1,2,2.1s0.5,10.6,0.5,10.8
	c-0.6,0.1-1.2,0.1-1.8,0.1c0,0,0-0.9-0.1-1.7c-0.1-0.8-1.2-1-1.2-1s-1-5.6-2.7-7.3c-1.7-1.8-4.6-5.8-11.6-6.2s-10.2,0.7-15,4.2
	C22.3,28.5,21.6,35,21.6,35c-0.3,0-1.2,0.1-1.5,0.5c-0.2,0.4,0.1,5.8,0.3,6.3c0.2,0.5,2.3,1,2.3,1c0.2,0.8,0.5,1.7,0.9,2.5
	c0.6,1.4,1.5,3.4,1.5,3.4s-1.9,4-1.7,4.5c0.2,0.5,2.7,3.4,6.4,5.5c3.7,2.1,10.4,3.6,16.2,1.5c5.8-2.2,10.8-6.8,10.9-7.1
	c0-0.3-2.1-5.8-2.1-5.8c0.4-0.6,0.7-1.2,0.9-1.9c0.2-1,0.4-2,0.4-2.9c0,0,1.4-0.3,1.7-0.7c0.2-0.8,0.3-1.7,0.2-2.6
	c0,0,3.1,0.2,3.4,0.2c0.3-0.1,0.8-0.2,0.9-0.7C62.1,38.2,60.8,25.8,60.8,25.8z M22.9,41.5c-0.3,0.1-0.7,0.1-1-0.1
	c-0.1-0.1-0.6-4.8-0.4-5c0,0,1.3-0.1,1.3,0.1C23,38.2,23,39.9,22.9,41.5z M24.3,42.9c0-0.2,0-6.1,0-6.1c2.3-2.2,4.8-4,7.6-5.5
	c3.5-1.7,8.2-1.8,11.3-1.2c3.2,0.5,6,2.6,8,4c2,1.4,2.2,1.9,2.2,1.9c0,1.8,0.1,3.7,0.2,5.5c0.2,0.3,0.4,0.6,0.6,0.9
	c-0.3,1.3-0.7,2.6-1.4,3.8c-0.8,1.6-1.9,3.1-3.3,4.3c-0.9,0.6-1.8,1.2-2.8,1.7c0,0-2.4-2.3-2.6-2.4s-0.7,0.4-0.6,0.6
	c0.1,0.2,2.7,2.1,2.5,2.2c-2.3,0.9-4.8,1.5-7.3,1.6c-3.7-0.1-7.3-1.4-10.1-3.9C26.8,48.1,25.3,45.6,24.3,42.9z M28.1,55.5
	c-0.1,0-0.5-0.1-0.4-0.2s1.3-2.6,1.5-2.7c0.1-0.1,0.4,0.1,0.4,0.2C29.4,52.9,28.2,55.5,28.1,55.5L28.1,55.5z M29,56.3
	c-0.1-0.1-0.4-0.1-0.4-0.2c0-0.1,1.3-2.8,1.3-2.8l0.4,0.2C30,54.5,29.5,55.4,29,56.3L29,56.3z M54.9,52.8c-0.1,0.1-0.2,0.3-0.4,0.4
	c-0.4-0.9-1-1.7-1.5-2.5c-0.2,0-0.6,0.6-0.6,0.6s1.4,2.1,1.3,2.3c-0.3,0.3-0.6,0.5-1,0.6c-0.3-0.7-0.7-1.4-1.2-2.1
	c-0.2-0.1-0.8,0.4-0.7,0.5c0.1,0.2,1.3,2.1,1.3,2.1s-0.7,0.6-0.9,0.6c-0.1-0.1-1-1.8-1.2-1.8c-0.1,0-0.6,0.5-0.6,0.5
	s1.3,1.7,1.2,1.8l-0.6,0.5l-1.2-1.8c0,0-0.5,0.2-0.5,0.4c0,0.1,1.2,2,1.2,2.1c-0.1,0.1-2.1,1.7-6.6,2.2c-4.5,0.5-7.3,0.1-9.8-0.7
	c-2.5-0.8-3.4-1.6-3.5-1.7c0.3-1,0.7-2,1.2-3c2.1,1.1,4.4,1.7,6.7,1.8c4.1,0.2,5.6,0.1,9.2-1.7c2.1-0.9,3.9-2.2,5.5-3.8
	c0.4-0.4,0.8-0.7,1.2-1.1C53.6,49,55,52.6,54.9,52.8z M56.1,40.7c-0.1,0.1-0.3,0.1-0.4,0.2c-0.2,0-0.3,0-0.5,0
	c-0.1-0.1-0.1-5.4,0-5.4c0.1,0,0.9,0.1,1,0.3C56.3,37.4,56.2,39.1,56.1,40.7z M61.1,38.2c-1,0.2-2.1,0.2-3.1,0.1
	c-0.1-0.1,0-0.5,0-0.5s2.4,0,2.4-0.2c0-0.2-0.4-7.2-0.2-7.3c0.2-0.2,0.2,0.1,0.4,0.3C60.8,33.1,61,35.6,61.1,38.2L61.1,38.2z"/>
</svg>
