<svg width="20" height="20" viewBox="0 0 20 20" fill="none" xmlns="http://www.w3.org/2000/svg">
<path d="M16.0413 4.70795C15.6922 4.3476 15.2778 4.06174 14.8216 3.86671C14.3654 3.67167 13.8765 3.57129 13.3827 3.57129C12.889 3.57129 12.4001 3.67167 11.9439 3.86671C11.4877 4.06174 11.0733 4.3476 10.7242 4.70795L9.99979 5.45547L9.27536 4.70795C8.57028 3.9804 7.61398 3.57167 6.61684 3.57167C5.6197 3.57167 4.6634 3.9804 3.95831 4.70795C3.25323 5.43551 2.85712 6.42228 2.85712 7.45119C2.85712 8.48011 3.25323 9.46688 3.95831 10.1944L4.68274 10.942L9.99979 16.4284L15.3168 10.942L16.0413 10.1944C16.3905 9.83425 16.6675 9.40659 16.8565 8.9359C17.0455 8.4652 17.1428 7.96069 17.1428 7.45119C17.1428 6.94169 17.0455 6.43719 16.8565 5.96649C16.6675 5.4958 16.3905 5.06814 16.0413 4.70795Z" fill="white"/>
</svg>
