<?xml version="1.0" encoding="utf-8"?>
<!-- Generator: Adobe Illustrator 26.1.0, SVG Export Plug-In . SVG Version: 6.00 Build 0)  -->
<svg version="1.1" id="圖層_1" xmlns="http://www.w3.org/2000/svg" xmlns:xlink="http://www.w3.org/1999/xlink" x="0px" y="0px"
	 viewBox="0 0 20 20" style="enable-background:new 0 0 20 20;" xml:space="preserve">
<style type="text/css">
	.st0{fill:#7895AC;}
</style>
<g>
	<path class="st0" d="M11.4,17.3c-0.2,0-0.3-0.1-0.5-0.2l-4.5-3.6H3c-0.4,0-0.8-0.3-0.8-0.8V7.2c0-0.4,0.3-0.8,0.8-0.8h3.5l4.5-3.6
		c0.2-0.2,0.5-0.2,0.8-0.1s0.4,0.4,0.4,0.7v13.1c0,0.3-0.2,0.6-0.4,0.7C11.6,17.3,11.5,17.3,11.4,17.3z M3.8,12.1h3
		c0.2,0,0.3,0.1,0.5,0.2l3.4,2.8V5.1L7.2,7.8C7.1,7.9,6.9,8,6.7,8h-3V12.1z"/>
</g>
<g>
	<path class="st0" d="M15.6,14.1c-0.2,0-0.4-0.1-0.5-0.2c-0.3-0.3-0.3-0.8,0-1.1c0.7-0.7,1.1-1.7,1.1-2.8s-0.4-2-1.1-2.8
		c-0.3-0.3-0.3-0.8,0-1.1s0.8-0.3,1.1,0c1,1,1.6,2.4,1.6,3.8c0,1.4-0.6,2.8-1.6,3.8C16,14,15.8,14.1,15.6,14.1z"/>
</g>
</svg>
