<svg width="40" height="40" viewBox="0 0 40 40" fill="none" xmlns="http://www.w3.org/2000/svg">
<path fill-rule="evenodd" clip-rule="evenodd" d="M20 34.5C28.0081 34.5 34.5 28.0081 34.5 20C34.5 11.9919 28.0081 5.5 20 5.5C11.9919 5.5 5.5 11.9919 5.5 20C5.5 28.0081 11.9919 34.5 20 34.5ZM14.5625 18.1875C15.5635 18.1875 16.375 17.376 16.375 16.375C16.375 15.374 15.5635 14.5625 14.5625 14.5625C13.5615 14.5625 12.75 15.374 12.75 16.375C12.75 17.376 13.5615 18.1875 14.5625 18.1875ZM27.25 16.375C27.25 17.376 26.4385 18.1875 25.4375 18.1875C24.4365 18.1875 23.625 17.376 23.625 16.375C23.625 15.374 24.4365 14.5625 25.4375 14.5625C26.4385 14.5625 27.25 15.374 27.25 16.375ZM16.6413 22.1325C16.3175 21.485 15.5301 21.2225 14.8826 21.5463C14.2351 21.87 13.9726 22.6574 14.2964 23.3049C14.6241 23.9604 15.2648 24.8654 16.186 25.6205C17.1181 26.3845 18.4091 27.0504 20.0001 27.0504C21.591 27.0504 22.882 26.3845 23.8141 25.6205C24.7353 24.8654 25.376 23.9604 25.7038 23.3049C26.0275 22.6574 25.7651 21.87 25.1175 21.5463C24.47 21.2225 23.6826 21.485 23.3589 22.1325C23.1832 22.4839 22.7666 23.0893 22.1522 23.5929C21.5487 24.0876 20.8258 24.4287 20.0001 24.4287C19.1744 24.4287 18.4515 24.0876 17.848 23.5929C17.2336 23.0893 16.817 22.4839 16.6413 22.1325Z" fill="#7895AC" fill-opacity="0.5"/>
</svg>
