<svg width="40" height="40" viewBox="0 0 40 40" fill="none" xmlns="http://www.w3.org/2000/svg">
<path fill-rule="evenodd" clip-rule="evenodd" d="M20 34.5C28.0081 34.5 34.5 28.0081 34.5 20C34.5 11.9919 28.0081 5.5 20 5.5C11.9919 5.5 5.5 11.9919 5.5 20C5.5 28.0081 11.9919 34.5 20 34.5ZM14.75 18.25C15.7165 18.25 16.5 17.4665 16.5 16.5C16.5 15.5335 15.7165 14.75 14.75 14.75C13.7835 14.75 13 15.5335 13 16.5C13 17.4665 13.7835 18.25 14.75 18.25ZM27 16.5C27 17.4665 26.2165 18.25 25.25 18.25C24.2835 18.25 23.5 17.4665 23.5 16.5C23.5 15.5335 24.2835 14.75 25.25 14.75C26.2165 14.75 27 15.5335 27 16.5ZM16.757 26.1077C16.4444 26.7329 15.6842 26.9863 15.059 26.6737C14.4338 26.3611 14.1804 25.6009 14.493 24.9757C14.8095 24.3428 15.4281 23.469 16.3175 22.74C17.2175 22.0023 18.4639 21.3594 20 21.3594C21.5361 21.3594 22.7826 22.0023 23.6826 22.74C24.572 23.469 25.1906 24.3428 25.507 24.9757C25.8196 25.6009 25.5662 26.3611 24.941 26.6737C24.3158 26.9863 23.5556 26.7329 23.243 26.1077C23.0734 25.7684 22.6711 25.1839 22.0779 24.6976C21.4952 24.22 20.7973 23.8907 20 23.8907C19.2028 23.8907 18.5048 24.22 17.9221 24.6976C17.3289 25.1839 16.9267 25.7684 16.757 26.1077Z" fill="#7895AC" fill-opacity="0.5"/>
</svg>
