<?xml version="1.0" encoding="utf-8"?>
<!-- Generator: Adobe Illustrator 26.1.0, SVG Export Plug-In . SVG Version: 6.00 Build 0)  -->
<svg version="1.1" id="圖層_1" xmlns="http://www.w3.org/2000/svg" xmlns:xlink="http://www.w3.org/1999/xlink" x="0px" y="0px"
	 viewBox="0 0 20 20" style="enable-background:new 0 0 20 20;" xml:space="preserve">
<style type="text/css">
	.st0{fill:#7895AC;}
	.st1{fill-rule:evenodd;clip-rule:evenodd;fill:#7895AC;}
</style>
<g>
	<path class="st0" d="M10,12.9c-0.8,0-1.5-0.3-2-0.8s-0.8-1.3-0.8-2V4.3c0-0.8,0.3-1.5,0.8-2c1.1-1.1,3-1.1,4.1,0
		c0.5,0.5,0.8,1.3,0.8,2V10c0,0.8-0.3,1.5-0.8,2C11.5,12.6,10.8,12.9,10,12.9z M10,2.9C9.6,2.9,9.3,3,9,3.3c-0.3,0.3-0.4,0.6-0.4,1
		V10c0,0.4,0.1,0.7,0.4,1c0.5,0.5,1.4,0.5,2,0c0.3-0.3,0.4-0.6,0.4-1V4.3c0-0.4-0.1-0.7-0.4-1C10.7,3,10.4,2.9,10,2.9z"/>
</g>
<g>
	<path class="st1" d="M5,7.8c0.4,0,0.8,0.3,0.8,0.8V10c0,1.1,0.4,2.2,1.2,3c0.8,0.8,1.9,1.2,3,1.2c1.1,0,2.2-0.4,3-1.2
		c0.8-0.8,1.2-1.9,1.2-3V8.6c0-0.4,0.3-0.8,0.8-0.8s0.8,0.3,0.8,0.8V10c0,1.5-0.6,3-1.7,4.1c-0.9,0.9-2.1,1.5-3.3,1.6v1.4h2.1
		c0.4,0,0.8,0.3,0.8,0.8s-0.3,0.8-0.8,0.8H10c0,0,0,0,0,0c0,0,0,0,0,0H7.1c-0.4,0-0.8-0.3-0.8-0.8s0.3-0.8,0.8-0.8h2.1v-1.4
		C8,15.5,6.8,15,5.9,14.1C4.9,13,4.2,11.5,4.2,10V8.6C4.2,8.2,4.6,7.8,5,7.8z"/>
</g>
</svg>
