<svg width="82" height="82" viewBox="0 0 82 82" fill="none" xmlns="http://www.w3.org/2000/svg">
<path d="M82 41C82 69.3046 69.3046 82 41 82C12.6954 82 0 69.3046 0 41C0 12.6954 12.6954 0 41 0C69.3046 0 82 12.6954 82 41Z" fill="url(#paint0_linear_1952_1123)"/>
<path d="M53.8571 45.2854C53.8571 46.0432 53.5561 46.7699 53.0203 47.3057C52.4845 47.8416 51.7577 48.1426 51 48.1426H33.8571L28.1428 53.8569V30.9997C28.1428 30.242 28.4438 29.5152 28.9797 28.9794C29.5155 28.4436 30.2422 28.1426 31 28.1426H51C51.7577 28.1426 52.4845 28.4436 53.0203 28.9794C53.5561 29.5152 53.8571 30.242 53.8571 30.9997V45.2854Z" fill="white"/>
<defs>
<linearGradient id="paint0_linear_1952_1123" x1="0" y1="0" x2="98.6885" y2="46.8344" gradientUnits="userSpaceOnUse">
<stop offset="0.1875" stop-color="#688398"/>
<stop offset="1" stop-color="#7895AC" stop-opacity="0.6"/>
</linearGradient>
</defs>
</svg>
