<?xml version="1.0" encoding="utf-8"?>
<!-- Generator: Adobe Illustrator 28.0.0, SVG Export Plug-In . SVG Version: 6.00 Build 0)  -->
<svg version="1.1" id="圖層_1" xmlns="http://www.w3.org/2000/svg" xmlns:xlink="http://www.w3.org/1999/xlink" x="0px" y="0px"
	 viewBox="0 0 14.1 14.1" style="enable-background:new 0 0 14.1 14.1;" xml:space="preserve">
<style type="text/css">
	.st0{fill:url(#SVGID_1_);}
</style>
<linearGradient id="SVGID_1_" gradientUnits="userSpaceOnUse" x1="0" y1="7.0434" x2="14.0868" y2="7.0434">
	<stop  offset="0" style="stop-color:#040000"/>
	<stop  offset="1" style="stop-color:#565858"/>
</linearGradient>
<path class="st0" d="M1.8,8.8h6.3c0,0-1.9,1.9-2.3,2.3c-0.7,0.7-0.7,1.8,0,2.5c0.7,0.7,1.8,0.7,2.5,0l5.3-5.3c0.7-0.7,0.7-1.8,0-2.5
	L8.3,0.5c-0.7-0.7-1.8-0.7-2.5,0C5.1,1.2,5.1,2.3,5.8,3c0.4,0.4,2.3,2.3,2.3,2.3H1.8C0.8,5.3,0,6.1,0,7C0,8,0.8,8.8,1.8,8.8z"/>
</svg>
