<?xml version="1.0" encoding="utf-8"?>
<!-- Generator: Adobe Illustrator 28.0.0, SVG Export Plug-In . SVG Version: 6.00 Build 0)  -->
<svg version="1.1" id="圖層_1" xmlns="http://www.w3.org/2000/svg" xmlns:xlink="http://www.w3.org/1999/xlink" x="0px" y="0px"
	 viewBox="0 0 14.1 14.1" style="enable-background:new 0 0 14.1 14.1;" xml:space="preserve">
<style type="text/css">
	.st0{fill:#15386E;}
</style>
<path class="st0" d="M1.8,8.8h6.3c0,0-1.9,1.9-2.3,2.3c-0.7,0.7-0.7,1.8,0,2.5s1.8,0.7,2.5,0l5.3-5.3c0.7-0.7,0.7-1.8,0-2.5L8.3,0.5
	c-0.7-0.7-1.8-0.7-2.5,0S5.1,2.3,5.8,3c0.4,0.4,2.3,2.3,2.3,2.3H1.8C0.8,5.3,0,6.1,0,7C0,8,0.8,8.8,1.8,8.8z"/>
</svg>
