<?xml version="1.0" encoding="utf-8"?>
<!-- Generator: Adobe Illustrator 28.0.0, SVG Export Plug-In . SVG Version: 6.00 Build 0)  -->
<svg version="1.1" id="圖層_1" xmlns="http://www.w3.org/2000/svg" xmlns:xlink="http://www.w3.org/1999/xlink" x="0px" y="0px"
	 viewBox="0 0 20.8 20.8" style="enable-background:new 0 0 20.8 20.8;" xml:space="preserve">
<style type="text/css">
	.st0{fill:#123669;}
</style>
<path id="XMLID_00000164505998891670421990000011551727726258958508_" class="st0" d="M10.4,0C4.7,0,0,4.7,0,10.4
	s4.7,10.4,10.4,10.4c5.7,0,10.4-4.7,10.4-10.4S16.1,0,10.4,0z M5.1,8.4c0-0.3,0.1-0.7,0.4-0.9C5.7,7.2,6,7.1,6.4,7.1
	c0.3,0,0.7,0.1,0.9,0.4C7.5,7.7,7.6,8,7.6,8.4c0,0.3-0.1,0.7-0.4,0.9C7,9.5,6.7,9.6,6.4,9.6S5.7,9.5,5.5,9.3C5.2,9,5.1,8.7,5.1,8.4z
	 M14.3,14.3c-0.4,0.4-1,0.4-1.3,0c-0.7-0.7-1.6-1.1-2.5-1.1c-1,0-1.9,0.4-2.5,1.1c-0.2,0.2-0.4,0.3-0.7,0.3c-0.2,0-0.5-0.1-0.7-0.3
	c-0.4-0.4-0.4-1,0-1.3c1-1,2.4-1.6,3.9-1.6c0,0,0,0,0,0c1.5,0,2.8,0.6,3.9,1.6C14.6,13.3,14.6,13.9,14.3,14.3z M15.3,9.3
	c-0.2,0.2-0.6,0.4-0.9,0.4s-0.7-0.1-0.9-0.4c-0.2-0.2-0.4-0.6-0.4-0.9c0-0.3,0.1-0.7,0.4-0.9c0.2-0.2,0.6-0.4,0.9-0.4
	c0.3,0,0.7,0.1,0.9,0.4c0.2,0.2,0.4,0.6,0.4,0.9C15.7,8.7,15.5,9,15.3,9.3z"/>
</svg>
